<svg id="svg" version="1.1" xmlns="http://www.w3.org/2000/svg" xmlns:xlink="http://www.w3.org/1999/xlink" width="400" height="400" viewBox="0, 0, 400,400"><g id="svgg"><path id="path0" d="M200.000 202.200 L 200.000 238.000 249.435 238.000 L 298.870 238.000 298.585 239.700 C 295.541 257.855,282.657 278.030,266.215 290.389 L 262.296 293.334 263.248 294.050 C 263.772 294.443,277.250 304.921,293.200 317.333 L 322.200 339.902 325.943 336.251 C 366.207 296.975,384.518 234.574,374.553 170.594 L 373.900 166.400 286.950 166.400 L 200.000 166.400 200.000 202.200 " stroke="none" fill="#4484f3" fill-rule="evenodd"></path><path id="path1" d="M66.519 258.560 C 49.755 271.562,35.836 282.403,35.588 282.651 C 33.860 284.381,50.255 309.223,61.820 322.400 C 107.295 374.213,178.889 395.822,248.686 378.802 C 271.663 373.199,293.905 362.606,311.594 348.841 C 316.237 345.227,321.800 340.353,321.800 339.898 C 321.800 339.691,308.405 329.125,292.034 316.416 L 262.268 293.309 258.834 295.400 C 234.856 310.004,202.035 314.652,173.769 307.448 C 140.106 298.869,110.904 272.297,98.503 238.960 L 97.000 234.920 66.519 258.560 " stroke="none" fill="#34ab54" fill-rule="evenodd"></path><path id="path2" d="M32.818 121.676 C 11.386 167.367,9.770 221.192,28.423 268.078 C 30.481 273.252,34.512 282.245,34.984 282.717 C 35.131 282.864,94.829 236.816,96.370 235.368 C 96.860 234.906,96.764 234.208,95.670 230.316 C 89.888 209.732,89.894 189.599,95.688 169.480 C 96.756 165.773,96.852 165.086,96.366 164.635 C 95.480 163.812,35.253 117.200,35.075 117.200 C 34.988 117.200,33.973 119.214,32.818 121.676 " stroke="none" fill="#fbbb04" fill-rule="evenodd"></path><path id="path3" d="M186.800 15.852 C 129.696 20.900,81.242 48.228,49.300 93.400 C 44.233 100.566,34.728 116.500,35.245 116.962 C 37.536 119.010,96.589 164.404,96.848 164.317 C 97.056 164.248,98.094 162.034,99.156 159.396 C 127.308 89.482,214.031 66.341,267.761 114.405 L 270.523 116.875 297.062 90.338 C 311.658 75.743,323.555 63.675,323.500 63.521 C 323.445 63.367,321.583 61.656,319.362 59.720 C 291.249 35.216,259.732 21.309,221.600 16.582 C 216.447 15.943,191.652 15.423,186.800 15.852 " stroke="none" fill="#ec4434" fill-rule="evenodd"></path><path id="path4" d="" stroke="none" fill="#ec4c34" fill-rule="evenodd"></path></g></svg>