<svg id="svg" version="1.1" xmlns="http://www.w3.org/2000/svg" xmlns:xlink="http://www.w3.org/1999/xlink" width="400" height="400" viewBox="0, 0, 400,400"><g id="svgg"><path id="path0" d="M188.782 0.411 C 188.534 0.564,188.347 0.804,188.366 0.945 C 188.474 1.755,188.336 1.950,187.800 1.745 C 187.470 1.618,187.200 1.264,187.200 0.957 C 187.200 0.651,187.009 0.400,186.776 0.400 C 186.543 0.400,186.481 0.608,186.638 0.862 C 186.813 1.145,186.748 1.215,186.470 1.043 C 185.571 0.488,181.155 0.502,180.595 1.062 C 180.299 1.358,179.630 1.600,179.109 1.600 C 178.587 1.600,177.918 1.825,177.621 2.100 C 177.183 2.507,177.125 2.478,177.310 1.949 C 177.499 1.407,177.326 1.341,176.269 1.552 C 175.571 1.691,174.640 1.797,174.200 1.788 C 173.760 1.779,173.109 2.093,172.753 2.486 C 171.947 3.376,171.200 3.408,171.200 2.551 C 171.200 2.020,171.091 1.992,170.600 2.400 C 170.121 2.798,169.877 2.796,169.390 2.392 C 169.055 2.114,168.665 2.002,168.524 2.143 C 168.382 2.284,168.487 2.400,168.757 2.400 C 169.027 2.400,169.128 2.592,168.983 2.827 C 168.838 3.062,168.505 3.172,168.243 3.072 C 167.981 2.971,167.425 3.139,167.007 3.444 C 166.182 4.047,165.435 4.191,165.747 3.687 C 166.041 3.210,163.865 3.339,163.343 3.829 C 163.091 4.065,162.042 4.213,161.011 4.158 C 159.504 4.079,159.181 4.174,159.362 4.646 C 159.536 5.099,159.432 5.146,158.906 4.851 C 158.442 4.592,157.879 4.649,157.138 5.032 C 156.540 5.341,155.740 5.475,155.360 5.329 C 154.893 5.150,154.762 5.215,154.955 5.527 C 155.142 5.830,155.026 5.908,154.621 5.753 C 154.267 5.617,154.000 5.726,154.000 6.006 C 154.000 6.372,153.863 6.384,153.463 6.052 C 153.168 5.807,152.827 5.707,152.705 5.828 C 152.583 5.950,151.801 6.135,150.968 6.238 C 149.245 6.452,146.680 7.882,147.023 8.437 C 147.148 8.640,146.795 8.598,146.238 8.345 C 145.681 8.091,145.319 7.731,145.433 7.546 C 145.548 7.361,145.369 7.314,145.036 7.442 C 144.703 7.569,144.318 8.027,144.182 8.458 C 143.994 9.050,143.805 9.136,143.411 8.809 C 142.816 8.316,140.966 8.973,140.070 9.995 C 139.779 10.328,139.655 10.375,139.794 10.100 C 139.945 9.802,139.786 9.600,139.400 9.600 C 139.044 9.600,138.842 9.744,138.950 9.919 C 139.058 10.095,138.989 10.495,138.795 10.808 C 138.501 11.283,138.399 11.264,138.179 10.689 C 138.033 10.310,137.743 10.000,137.534 10.000 C 137.324 10.000,137.288 10.225,137.453 10.500 C 137.641 10.813,137.463 10.780,136.977 10.413 C 136.550 10.090,136.333 9.984,136.497 10.176 C 137.002 10.773,135.994 11.625,135.252 11.228 C 134.816 10.995,134.324 11.066,133.818 11.436 C 133.394 11.746,132.715 12.000,132.309 12.000 C 131.904 12.000,131.128 12.291,130.586 12.646 C 130.044 13.001,129.599 13.136,129.597 12.946 C 129.596 12.756,129.257 13.113,128.844 13.739 C 128.337 14.508,128.030 14.703,127.899 14.339 C 127.749 13.922,127.531 13.902,126.939 14.249 C 126.256 14.650,124.068 15.287,123.000 15.396 C 122.780 15.418,122.652 15.675,122.716 15.966 C 122.798 16.342,122.484 16.444,121.637 16.320 C 120.912 16.214,120.538 16.300,120.687 16.540 C 120.835 16.780,120.629 16.830,120.166 16.667 C 119.493 16.431,119.477 16.459,120.035 16.899 C 120.384 17.175,120.594 17.626,120.501 17.902 C 120.388 18.238,120.084 18.105,119.585 17.502 L 118.837 16.600 119.027 17.800 C 119.156 18.612,119.099 18.821,118.852 18.446 C 118.393 17.751,116.400 18.174,116.400 18.967 C 116.400 19.342,115.955 19.497,115.000 19.452 C 114.172 19.413,113.600 19.574,113.600 19.847 C 113.600 20.457,111.989 21.491,110.771 21.663 C 110.237 21.738,109.602 22.052,109.361 22.361 C 109.042 22.768,108.844 22.795,108.637 22.461 C 108.481 22.207,108.138 22.003,107.876 22.006 C 107.589 22.010,107.638 22.168,108.000 22.406 C 108.791 22.926,107.865 23.594,106.756 23.304 C 106.311 23.188,106.000 23.313,106.000 23.609 C 106.000 23.886,105.685 24.357,105.300 24.657 C 104.649 25.164,104.655 25.183,105.387 24.925 C 106.088 24.678,106.110 24.716,105.587 25.280 C 105.164 25.735,104.908 25.784,104.670 25.456 C 104.429 25.124,104.289 25.121,104.154 25.446 C 104.053 25.691,103.391 25.828,102.685 25.750 C 101.689 25.640,101.535 25.704,102.000 26.034 C 102.454 26.357,102.478 26.510,102.098 26.665 C 101.821 26.777,101.706 27.048,101.842 27.268 C 101.995 27.516,101.470 27.623,100.462 27.550 C 99.566 27.485,98.691 27.589,98.517 27.780 C 98.343 27.972,98.425 27.999,98.700 27.841 C 99.404 27.435,99.324 28.199,98.600 28.800 C 98.185 29.144,98.000 29.159,98.000 28.849 C 98.000 28.602,97.790 28.400,97.533 28.400 C 97.277 28.400,97.186 28.519,97.331 28.664 C 97.597 28.931,96.407 29.769,95.089 30.243 C 94.612 30.415,94.456 30.747,94.616 31.250 C 94.780 31.766,94.658 32.000,94.227 32.000 C 93.882 32.000,93.600 31.798,93.600 31.551 C 93.600 31.239,93.418 31.253,93.004 31.596 C 92.677 31.868,92.497 32.233,92.605 32.408 C 92.713 32.583,92.441 32.631,92.001 32.516 C 91.455 32.373,91.200 32.503,91.200 32.926 C 91.200 33.266,90.795 33.606,90.300 33.682 C 89.805 33.757,89.434 34.008,89.476 34.239 C 89.518 34.470,89.158 34.645,88.676 34.629 C 87.996 34.607,87.770 34.862,87.667 35.770 C 87.567 36.644,87.442 36.795,87.173 36.370 C 86.881 35.909,86.811 35.939,86.806 36.524 C 86.803 36.922,86.617 37.134,86.393 36.996 C 86.170 36.858,86.107 36.551,86.253 36.315 C 86.399 36.078,85.952 36.220,85.259 36.629 C 84.567 37.038,84.000 37.694,84.000 38.086 C 84.000 38.479,83.820 38.800,83.600 38.800 C 83.380 38.800,83.200 38.586,83.200 38.325 C 83.200 38.063,82.840 38.236,82.400 38.708 C 81.960 39.180,81.600 39.844,81.600 40.183 C 81.600 40.522,81.426 40.800,81.213 40.800 C 80.999 40.800,80.939 40.485,81.079 40.100 C 81.239 39.659,81.030 39.765,80.512 40.387 C 80.061 40.930,79.780 41.605,79.889 41.887 C 79.997 42.169,79.901 42.400,79.676 42.400 C 79.451 42.400,79.198 42.195,79.115 41.944 C 78.958 41.475,76.643 43.366,76.550 44.039 C 76.523 44.237,76.478 44.545,76.450 44.722 C 76.422 44.900,75.905 45.035,75.300 45.022 C 74.625 45.009,74.239 45.193,74.300 45.500 C 74.355 45.775,74.201 46.000,73.957 46.000 C 73.711 46.000,73.626 46.291,73.766 46.657 C 73.977 47.206,73.918 47.230,73.409 46.808 C 72.959 46.434,72.800 46.426,72.800 46.775 C 72.800 47.035,72.639 47.148,72.442 47.026 C 72.245 46.904,71.977 47.083,71.846 47.423 C 71.712 47.773,71.779 47.937,72.000 47.800 C 72.215 47.667,72.291 47.818,72.169 48.136 C 72.033 48.491,71.457 48.691,70.674 48.657 C 69.846 48.620,69.435 48.775,69.500 49.100 C 69.555 49.375,69.330 49.600,69.000 49.600 C 68.670 49.600,68.400 49.799,68.400 50.042 C 68.400 50.286,67.948 50.840,67.396 51.274 C 66.844 51.709,66.495 52.230,66.620 52.432 C 66.745 52.634,66.657 52.800,66.424 52.800 C 66.191 52.800,65.986 52.575,65.968 52.300 C 65.951 52.025,65.759 52.287,65.541 52.882 C 65.324 53.477,64.788 54.077,64.352 54.215 C 63.744 54.408,63.661 54.592,64.000 55.000 C 64.339 55.409,64.251 55.593,63.621 55.793 C 63.169 55.937,62.800 56.241,62.800 56.470 C 62.800 56.698,62.532 56.783,62.205 56.657 C 61.861 56.525,61.650 56.634,61.705 56.914 C 61.757 57.181,61.580 57.357,61.312 57.304 C 61.044 57.251,60.632 57.566,60.398 58.004 C 60.087 58.586,60.097 58.800,60.435 58.800 C 60.771 58.800,60.763 58.963,60.403 59.396 C 60.090 59.773,59.558 59.904,58.954 59.753 C 58.341 59.599,58.000 59.687,58.000 59.999 C 58.000 60.289,57.716 60.387,57.300 60.242 C 56.633 60.010,56.633 60.024,57.300 60.543 C 58.038 61.118,58.285 61.823,57.600 61.400 C 57.380 61.264,57.197 61.478,57.194 61.876 C 57.189 62.498,57.127 62.515,56.759 62.000 C 56.415 61.518,56.369 61.577,56.528 62.300 C 56.666 62.929,56.540 63.200,56.108 63.200 C 55.769 63.200,55.065 63.660,54.544 64.223 C 54.023 64.785,53.417 65.134,53.198 64.999 C 52.979 64.864,52.800 64.930,52.800 65.147 C 52.800 65.364,53.115 65.624,53.500 65.724 C 54.167 65.898,54.167 65.909,53.500 65.954 C 53.115 65.979,52.800 66.191,52.800 66.424 C 52.800 66.657,52.620 66.736,52.400 66.600 C 52.180 66.464,52.000 66.543,52.000 66.776 C 52.000 67.009,51.862 67.155,51.692 67.100 C 51.523 67.045,50.938 67.431,50.392 67.959 C 49.847 68.486,49.625 68.791,49.900 68.635 C 50.175 68.480,50.400 68.554,50.400 68.800 C 50.400 69.046,50.580 69.136,50.800 69.000 C 51.020 68.864,51.200 68.858,51.200 68.986 C 51.200 69.115,50.732 69.398,50.159 69.615 C 49.438 69.890,49.194 70.207,49.364 70.650 C 49.561 71.164,49.415 71.240,48.615 71.040 C 47.835 70.844,47.671 70.920,47.853 71.395 C 47.981 71.728,47.876 72.000,47.619 72.000 C 47.363 72.000,47.264 72.180,47.400 72.400 C 47.536 72.620,47.287 72.800,46.847 72.800 C 46.407 72.800,45.919 73.008,45.762 73.262 C 45.586 73.546,45.652 73.615,45.934 73.441 C 46.229 73.258,46.307 73.377,46.154 73.777 C 46.023 74.117,45.755 74.296,45.558 74.174 C 45.361 74.052,45.200 74.143,45.200 74.376 C 45.200 74.609,45.380 74.800,45.600 74.800 C 45.820 74.800,46.000 74.980,46.000 75.200 C 46.000 75.420,45.539 75.600,44.976 75.600 C 44.413 75.600,44.051 75.760,44.172 75.955 C 44.292 76.150,44.015 76.407,43.555 76.528 C 43.096 76.648,42.838 76.938,42.983 77.173 C 43.128 77.408,43.035 77.600,42.775 77.600 C 42.419 77.600,42.415 77.736,42.758 78.149 C 43.300 78.803,42.933 80.000,42.191 80.000 C 41.902 80.000,41.576 80.225,41.465 80.500 C 41.312 80.879,41.256 80.882,41.232 80.513 C 41.187 79.825,40.000 80.359,40.000 81.066 C 40.000 81.399,39.787 81.539,39.500 81.394 C 39.225 81.255,39.349 81.424,39.776 81.770 C 40.216 82.127,40.336 82.400,40.053 82.400 C 39.778 82.400,39.642 82.544,39.751 82.720 C 39.859 82.896,39.581 83.269,39.132 83.549 C 38.682 83.831,38.435 83.867,38.582 83.630 C 38.728 83.393,38.678 83.200,38.470 83.200 C 38.263 83.200,37.994 83.578,37.874 84.040 C 37.734 84.573,37.461 84.782,37.127 84.611 C 36.837 84.462,36.915 84.599,37.300 84.914 C 38.042 85.522,38.278 86.219,37.600 85.800 C 37.380 85.664,37.200 85.833,37.200 86.176 C 37.200 86.519,37.026 86.800,36.813 86.800 C 36.599 86.800,36.474 86.575,36.534 86.300 C 36.593 86.025,36.463 86.205,36.244 86.700 C 36.025 87.195,35.649 87.600,35.408 87.600 C 35.167 87.600,34.941 87.989,34.905 88.464 C 34.869 88.939,34.631 89.457,34.375 89.616 C 34.022 89.834,34.022 89.941,34.378 90.059 C 34.659 90.153,34.731 90.514,34.559 90.964 C 34.278 91.694,34.257 91.693,33.690 90.956 C 33.332 90.491,33.183 90.431,33.303 90.800 C 33.410 91.130,33.116 91.834,32.649 92.364 C 31.966 93.139,31.933 93.280,32.480 93.084 C 32.958 92.913,33.095 93.009,32.941 93.409 C 32.821 93.721,32.345 93.937,31.883 93.888 C 31.270 93.824,30.929 94.125,30.625 95.000 C 30.395 95.660,29.864 96.453,29.446 96.763 C 28.732 97.291,28.727 97.358,29.370 97.828 C 29.996 98.285,29.959 98.376,28.954 98.865 C 27.833 99.409,26.951 101.399,27.642 101.826 C 28.246 102.199,27.632 102.787,26.922 102.515 C 26.485 102.347,26.365 102.419,26.558 102.732 C 26.728 103.006,26.609 103.200,26.273 103.200 C 25.957 103.200,25.451 103.505,25.149 103.877 C 24.847 104.249,24.806 104.430,25.058 104.279 C 25.310 104.128,25.619 104.274,25.746 104.602 C 25.872 104.931,25.801 105.223,25.587 105.250 C 25.374 105.278,24.975 105.327,24.700 105.359 C 24.425 105.391,24.253 105.729,24.318 106.109 C 24.382 106.489,24.236 106.800,23.992 106.800 C 23.749 106.800,23.582 107.115,23.621 107.500 C 23.751 108.779,23.606 109.200,23.033 109.200 C 22.722 109.200,22.369 108.975,22.249 108.700 C 22.130 108.425,22.139 108.714,22.270 109.343 C 22.427 110.098,22.320 110.605,21.954 110.837 C 21.555 111.090,21.540 111.189,21.900 111.194 C 22.775 111.205,22.438 111.904,21.437 112.155 C 20.714 112.336,20.526 112.596,20.684 113.198 C 20.824 113.734,20.697 114.000,20.302 114.000 C 19.908 114.000,19.747 114.335,19.820 115.000 C 19.891 115.646,19.730 116.000,19.365 116.000 C 18.643 116.000,18.811 116.913,19.600 117.277 C 20.083 117.499,20.040 117.602,19.380 117.802 C 18.929 117.939,18.343 118.400,18.077 118.826 C 17.543 119.681,17.966 119.874,18.720 119.120 C 18.984 118.856,19.200 118.816,19.200 119.031 C 19.200 119.489,17.607 120.934,17.585 120.496 C 17.567 120.114,16.183 123.107,15.804 124.350 C 15.605 125.001,15.654 125.214,15.957 125.026 C 16.806 124.502,16.392 125.245,15.300 126.207 C 14.695 126.739,14.425 127.180,14.700 127.187 C 15.005 127.195,14.888 127.512,14.400 128.000 C 13.960 128.440,13.600 129.160,13.600 129.600 C 13.600 130.040,13.420 130.400,13.200 130.400 C 12.541 130.400,12.748 131.672,13.500 132.243 C 14.185 132.763,13.608 133.054,12.300 132.847 C 12.135 132.821,12.000 133.055,12.000 133.367 C 12.000 133.679,11.879 134.249,11.732 134.633 C 11.529 135.161,11.602 135.250,12.032 134.997 C 12.462 134.744,12.448 134.849,11.975 135.431 C 11.299 136.262,11.241 136.730,11.719 137.482 C 11.909 137.781,11.640 138.217,11.013 138.628 C 10.005 139.289,9.547 140.303,10.500 139.765 C 10.775 139.609,10.595 139.876,10.100 140.357 C 9.173 141.258,8.893 142.400,9.600 142.400 C 10.254 142.400,10.057 143.143,9.168 144.032 C 8.366 144.834,8.362 144.885,9.068 145.433 C 9.771 145.979,9.769 145.991,9.031 145.732 C 8.432 145.521,8.316 145.605,8.510 146.110 C 8.671 146.528,8.507 146.839,8.050 146.984 C 7.520 147.152,7.384 147.513,7.515 148.405 C 7.625 149.154,7.515 149.600,7.220 149.600 C 6.961 149.600,6.791 149.915,6.842 150.300 C 6.995 151.460,6.330 155.744,5.864 156.600 C 5.624 157.040,5.422 157.520,5.414 157.667 C 5.406 157.813,5.267 158.067,5.103 158.230 C 4.940 158.393,5.007 158.768,5.252 159.063 C 5.542 159.412,5.553 159.600,5.284 159.600 C 5.057 159.600,4.921 159.915,4.983 160.300 C 5.045 160.685,4.907 161.360,4.675 161.800 C 4.116 162.864,3.878 164.839,4.411 163.996 C 4.707 163.528,4.789 163.609,4.794 164.374 C 4.797 164.910,4.395 165.794,3.900 166.339 C 3.405 166.883,3.213 167.207,3.472 167.058 C 3.732 166.909,4.058 166.970,4.196 167.193 C 4.334 167.417,4.167 167.600,3.824 167.600 C 3.168 167.600,3.002 168.069,3.486 168.553 C 4.294 169.361,3.320 173.168,2.443 172.626 C 2.295 172.535,2.169 173.352,2.165 174.443 C 2.159 175.763,2.309 176.367,2.612 176.251 C 2.862 176.155,3.067 176.312,3.067 176.600 C 3.067 176.888,2.843 177.038,2.569 176.933 C 2.194 176.789,2.151 177.094,2.393 178.168 C 2.579 178.993,2.564 179.501,2.357 179.374 C 2.161 179.252,2.000 179.419,2.000 179.744 C 2.000 180.069,1.879 180.649,1.732 181.033 C 1.530 181.559,1.604 181.651,2.032 181.407 C 2.492 181.144,2.505 181.185,2.100 181.621 C 1.427 182.347,1.470 183.991,2.209 185.760 C 2.755 187.066,2.755 187.243,2.209 187.452 C 1.874 187.580,1.600 187.921,1.600 188.209 C 1.600 188.498,1.375 188.838,1.100 188.967 C 0.700 189.153,0.700 189.247,1.100 189.433 C 1.375 189.562,1.600 189.907,1.600 190.200 C 1.600 190.493,1.375 190.824,1.100 190.935 C 0.709 191.093,0.712 191.144,1.114 191.168 C 1.509 191.193,1.526 191.391,1.185 192.028 C 0.874 192.609,0.864 193.207,1.150 194.028 C 1.423 194.811,1.425 195.200,1.156 195.200 C 0.934 195.200,0.856 195.368,0.983 195.572 C 1.109 195.777,1.030 196.058,0.807 196.196 C 0.583 196.334,0.400 196.717,0.400 197.047 C 0.400 197.421,0.589 197.534,0.900 197.347 C 1.240 197.143,1.224 197.263,0.851 197.723 C 0.493 198.164,0.458 198.400,0.751 198.400 C 0.998 198.400,1.200 198.591,1.200 198.824 C 1.200 199.057,0.992 199.119,0.738 198.962 C 0.422 198.766,0.387 198.853,0.628 199.238 C 0.822 199.547,0.926 200.126,0.861 200.524 C 0.795 200.922,0.960 201.511,1.227 201.833 C 1.623 202.310,1.597 202.374,1.087 202.178 C 0.457 201.936,0.456 201.962,0.937 205.000 C 0.972 205.220,1.180 205.535,1.400 205.700 C 1.654 205.891,1.602 206.128,1.257 206.350 C 0.871 206.599,0.845 206.780,1.165 206.978 C 1.451 207.155,1.535 207.961,1.396 209.181 C 1.214 210.772,1.297 211.152,1.877 211.374 C 2.316 211.543,2.418 211.747,2.150 211.922 C 1.533 212.324,1.085 214.400,1.616 214.400 C 1.853 214.400,1.945 214.565,1.821 214.766 C 1.697 214.967,1.801 215.200,2.052 215.284 C 2.379 215.393,2.352 215.687,1.958 216.318 C 1.526 217.010,1.510 217.363,1.880 217.957 C 2.140 218.373,2.238 218.828,2.098 218.968 C 1.685 219.382,1.640 220.400,2.035 220.400 C 2.236 220.400,2.400 220.814,2.400 221.320 C 2.400 221.826,2.625 222.482,2.900 222.779 C 3.237 223.142,3.246 223.231,2.928 223.052 C 2.668 222.906,2.325 222.998,2.166 223.255 C 2.007 223.513,2.048 223.618,2.257 223.488 C 2.467 223.359,2.900 223.418,3.219 223.620 C 3.679 223.912,3.687 223.989,3.257 223.994 C 2.949 223.997,2.810 224.250,2.937 224.580 C 3.084 224.963,2.967 225.085,2.593 224.942 C 2.172 224.781,2.049 225.031,2.113 225.911 C 2.161 226.563,2.386 227.026,2.614 226.939 C 2.999 226.792,3.157 227.436,3.214 229.382 C 3.227 229.811,3.431 230.396,3.668 230.682 C 3.930 230.998,3.944 231.200,3.704 231.200 C 3.068 231.200,3.337 232.702,4.140 233.639 C 4.741 234.340,4.779 234.566,4.340 234.839 C 3.888 235.121,3.890 235.321,4.354 236.070 C 4.748 236.705,4.777 237.008,4.454 237.115 C 3.574 237.409,4.497 239.200,5.529 239.200 C 5.741 239.200,6.009 239.448,6.126 239.750 C 6.255 240.089,6.083 240.281,5.678 240.250 C 5.316 240.223,5.031 240.470,5.044 240.800 C 5.087 241.823,5.661 242.800,6.219 242.800 C 7.210 242.800,7.267 243.617,6.331 244.404 C 5.401 245.185,5.401 245.186,6.244 245.425 C 6.893 245.609,7.057 245.924,6.956 246.794 C 6.870 247.532,7.037 248.005,7.438 248.159 C 7.788 248.294,7.925 248.598,7.757 248.870 C 7.305 249.600,7.335 252.346,7.794 252.269 C 8.017 252.231,8.155 252.425,8.100 252.700 C 8.045 252.975,8.315 253.203,8.700 253.206 C 9.118 253.210,9.229 253.331,8.975 253.506 C 8.514 253.826,8.401 255.600,8.842 255.600 C 9.084 255.600,9.533 256.839,9.832 258.334 C 9.891 258.627,10.268 259.116,10.670 259.421 C 11.071 259.725,11.188 259.980,10.928 259.987 C 10.082 260.010,11.542 263.860,12.644 264.512 C 13.032 264.741,13.069 265.092,12.786 265.838 C 12.273 267.186,12.277 267.200,13.200 267.200 C 13.640 267.200,14.000 267.391,14.000 267.624 C 14.000 267.857,13.832 267.944,13.628 267.817 C 13.083 267.480,12.710 268.286,12.995 269.183 C 13.143 269.652,13.470 269.871,13.820 269.737 C 14.139 269.614,14.400 269.699,14.400 269.924 C 14.400 270.149,14.175 270.424,13.900 270.535 C 13.500 270.696,13.500 270.743,13.900 270.768 C 14.175 270.786,14.400 271.076,14.400 271.414 C 14.400 271.752,14.691 272.472,15.046 273.015 C 15.402 273.557,15.594 274.379,15.474 274.840 C 15.353 275.302,15.361 275.572,15.492 275.441 C 15.879 275.054,17.188 278.355,16.946 279.108 C 16.787 279.604,16.829 279.655,17.093 279.289 C 17.368 278.906,17.584 279.046,17.946 279.840 C 18.212 280.425,18.336 280.997,18.222 281.111 C 18.108 281.225,18.379 281.635,18.824 282.021 C 19.396 282.517,19.483 282.772,19.120 282.893 C 18.731 283.023,18.764 283.221,19.256 283.713 C 19.613 284.070,20.018 284.282,20.156 284.184 C 20.294 284.087,20.237 284.210,20.029 284.458 C 19.784 284.750,19.854 285.112,20.229 285.487 C 20.547 285.804,20.704 286.231,20.578 286.435 C 20.452 286.639,20.619 286.909,20.949 287.036 C 21.301 287.171,21.449 287.528,21.307 287.899 C 21.146 288.317,21.222 288.433,21.532 288.242 C 21.789 288.083,22.000 288.138,22.000 288.364 C 22.000 288.590,22.270 288.671,22.600 288.545 C 23.431 288.226,23.357 289.189,22.500 289.856 C 21.833 290.375,21.833 290.421,22.500 290.820 C 22.885 291.051,23.200 291.512,23.200 291.845 C 23.200 292.200,23.489 292.401,23.900 292.332 C 24.285 292.266,24.600 292.390,24.600 292.607 C 24.600 292.823,24.465 292.955,24.300 292.900 C 23.718 292.706,24.008 293.628,24.600 293.855 C 24.930 293.982,25.200 294.426,25.200 294.843 C 25.200 295.348,25.500 295.615,26.100 295.646 C 26.777 295.681,26.827 295.738,26.300 295.876 C 25.205 296.162,25.478 297.079,26.796 297.539 C 27.636 297.831,27.921 298.141,27.753 298.578 C 27.594 298.993,27.745 299.200,28.206 299.200 C 28.722 299.200,28.790 299.330,28.474 299.710 C 27.995 300.287,28.893 302.493,30.097 303.697 C 30.484 304.084,30.800 304.731,30.800 305.136 C 30.800 305.540,31.260 306.081,31.823 306.337 C 32.385 306.594,32.734 306.983,32.599 307.202 C 32.464 307.421,32.543 307.600,32.776 307.600 C 33.009 307.600,33.155 307.821,33.100 308.091 C 33.045 308.360,33.383 308.640,33.852 308.712 C 34.542 308.818,34.685 309.085,34.603 310.119 C 34.505 311.374,35.706 313.029,36.403 312.598 C 36.568 312.496,36.808 312.941,36.937 313.586 C 37.116 314.481,37.357 314.724,37.954 314.609 C 38.874 314.432,39.454 315.528,38.611 315.851 C 38.159 316.025,38.139 316.184,38.518 316.594 C 38.783 316.881,39.163 317.017,39.362 316.896 C 39.561 316.775,39.608 316.864,39.466 317.093 C 39.325 317.322,39.475 317.730,39.800 318.000 C 40.125 318.270,40.315 318.614,40.222 318.764 C 40.129 318.915,40.196 319.270,40.371 319.553 C 40.616 319.950,40.746 319.918,40.940 319.413 C 41.105 318.982,41.035 318.855,40.734 319.041 C 40.452 319.215,40.386 319.146,40.562 318.862 C 41.038 318.091,41.671 318.346,41.400 319.200 C 41.200 319.829,41.328 320.000,41.997 320.000 C 42.464 320.000,42.736 320.180,42.600 320.400 C 42.464 320.620,42.654 320.800,43.023 320.800 C 43.497 320.800,43.632 321.035,43.484 321.601 C 43.351 322.110,43.431 322.304,43.705 322.135 C 43.974 321.969,44.044 322.108,43.892 322.505 C 43.627 323.195,44.493 324.173,44.958 323.709 C 45.114 323.552,45.117 323.751,44.964 324.150 C 44.766 324.665,45.011 325.156,45.805 325.838 C 46.421 326.367,46.710 326.800,46.449 326.800 C 46.187 326.800,46.835 327.565,47.887 328.500 C 49.803 330.201,50.000 330.453,50.000 331.200 C 50.000 331.420,50.450 331.600,51.000 331.600 C 51.550 331.600,52.000 331.780,52.000 332.000 C 52.000 332.220,51.780 332.400,51.511 332.400 C 51.242 332.400,51.467 332.714,52.011 333.097 C 52.555 333.480,53.098 333.763,53.217 333.725 C 53.336 333.687,53.463 334.036,53.498 334.501 C 53.533 334.966,53.844 335.505,54.189 335.698 C 54.534 335.891,54.712 336.218,54.585 336.425 C 54.457 336.631,54.606 336.800,54.915 336.800 C 55.729 336.800,57.200 338.183,57.200 338.947 C 57.200 339.306,57.364 339.555,57.564 339.500 C 57.764 339.445,58.467 339.999,59.128 340.732 C 59.788 341.465,60.435 342.050,60.564 342.032 C 61.311 341.931,61.600 342.051,61.600 342.462 C 61.600 342.716,62.324 343.612,63.208 344.454 C 64.092 345.295,64.812 346.077,64.808 346.192 C 64.804 346.306,64.871 346.355,64.958 346.300 C 65.045 346.245,65.537 346.560,66.051 347.000 C 66.741 347.591,66.844 347.617,66.444 347.100 C 66.052 346.594,66.034 346.400,66.380 346.400 C 67.009 346.400,68.031 347.436,67.714 347.752 C 67.578 347.889,67.777 348.000,68.157 348.000 C 68.537 348.000,68.734 348.183,68.596 348.407 C 68.458 348.630,68.177 348.709,67.972 348.583 C 67.768 348.456,67.600 348.533,67.600 348.754 C 67.600 349.372,69.224 350.366,69.846 350.127 C 70.210 349.987,70.400 350.203,70.400 350.757 C 70.400 351.325,70.654 351.600,71.176 351.600 C 71.603 351.600,72.081 351.808,72.238 352.062 C 72.430 352.373,72.340 352.417,71.962 352.196 C 71.653 352.016,71.904 352.349,72.521 352.935 C 73.735 354.089,74.410 354.376,73.592 353.390 C 73.314 353.055,73.202 352.665,73.343 352.524 C 73.484 352.382,73.600 352.477,73.600 352.733 C 73.600 352.990,73.851 353.200,74.157 353.200 C 74.464 353.200,74.822 353.479,74.953 353.821 C 75.084 354.162,75.025 354.339,74.823 354.214 C 74.621 354.089,74.342 354.170,74.204 354.393 C 74.066 354.617,74.220 354.800,74.547 354.800 C 74.874 354.800,75.470 355.205,75.871 355.700 C 76.679 356.698,78.713 357.255,78.180 356.333 C 78.007 356.034,78.026 355.940,78.222 356.119 C 78.415 356.295,78.767 357.015,79.006 357.719 C 79.244 358.424,79.671 358.950,79.954 358.889 C 80.237 358.827,80.563 359.136,80.678 359.575 C 80.889 360.385,81.900 360.921,82.826 360.714 C 83.106 360.651,83.545 361.004,83.803 361.498 C 84.061 361.991,84.396 362.271,84.547 362.119 C 85.123 361.544,86.000 361.697,86.000 362.373 C 86.000 363.298,87.647 364.801,87.892 364.100 C 87.988 363.825,88.268 363.600,88.513 363.600 C 88.841 363.600,88.840 363.720,88.511 364.049 C 87.974 364.586,88.283 365.600,88.983 365.600 C 89.256 365.600,90.225 366.140,91.137 366.800 C 93.039 368.178,93.200 368.224,93.200 367.384 C 93.200 366.878,93.299 366.860,93.758 367.284 C 94.065 367.568,94.234 367.935,94.134 368.100 C 94.035 368.265,94.133 368.400,94.353 368.400 C 94.574 368.400,94.685 368.760,94.600 369.200 C 94.415 370.162,94.549 370.194,95.362 369.381 C 95.922 368.821,96.038 368.889,96.558 370.081 C 97.064 371.237,97.139 371.285,97.167 370.467 C 97.202 369.469,98.186 369.438,98.218 370.433 C 98.228 370.745,98.467 370.951,98.748 370.890 C 99.029 370.830,99.168 370.928,99.056 371.109 C 98.944 371.290,99.018 371.700,99.220 372.019 C 99.472 372.418,99.590 372.443,99.594 372.100 C 99.597 371.825,99.799 371.600,100.043 371.600 C 100.286 371.600,100.389 371.852,100.270 372.161 C 99.969 372.945,100.422 373.280,101.063 372.748 C 101.367 372.495,101.600 372.470,101.600 372.688 C 101.600 372.900,102.219 373.407,102.976 373.815 C 103.732 374.222,104.243 374.746,104.111 374.978 C 103.980 375.210,104.021 375.265,104.203 375.099 C 104.386 374.934,104.907 375.114,105.361 375.499 C 105.913 375.968,106.030 375.997,105.715 375.586 C 105.329 375.082,105.385 374.971,106.027 374.971 C 106.457 374.971,106.747 375.158,106.670 375.386 C 106.402 376.177,107.725 376.782,108.226 376.097 C 108.548 375.657,108.760 375.611,108.963 375.939 C 109.119 376.193,109.068 376.400,108.848 376.400 C 108.629 376.400,108.476 376.751,108.508 377.180 C 108.552 377.755,108.698 377.851,109.066 377.545 C 109.640 377.069,110.531 377.464,110.177 378.038 C 109.866 378.540,110.911 378.319,111.300 377.800 C 111.674 377.301,112.451 378.395,112.112 378.943 C 111.982 379.152,112.086 379.194,112.341 379.036 C 112.597 378.878,113.089 379.032,113.435 379.378 C 113.781 379.724,114.211 379.917,114.390 379.806 C 114.570 379.695,114.827 379.894,114.963 380.248 C 115.129 380.680,115.533 380.830,116.193 380.703 C 116.733 380.600,117.104 380.631,117.017 380.773 C 116.929 380.914,117.430 381.262,118.129 381.545 C 118.828 381.829,120.075 382.398,120.900 382.810 C 122.184 383.452,122.400 383.472,122.400 382.949 C 122.400 382.538,122.810 382.749,123.653 383.592 C 124.342 384.281,125.143 384.754,125.433 384.643 C 125.754 384.519,125.879 384.651,125.752 384.981 C 125.638 385.277,125.782 385.510,126.073 385.497 C 127.533 385.433,128.422 385.641,128.203 385.995 C 128.062 386.223,128.224 386.289,128.584 386.151 C 128.929 386.019,129.477 386.132,129.803 386.402 C 130.129 386.673,130.757 386.800,131.198 386.685 C 131.640 386.569,131.899 386.639,131.775 386.841 C 131.452 387.364,133.300 387.989,133.853 387.544 C 134.147 387.308,134.392 387.403,134.550 387.815 C 134.685 388.165,134.960 388.348,135.163 388.223 C 135.366 388.098,135.608 388.221,135.701 388.498 C 135.833 388.891,136.014 388.881,136.535 388.451 C 137.123 387.966,137.200 388.014,137.200 388.871 C 137.200 389.913,139.075 390.332,139.694 389.429 C 139.874 389.166,139.990 389.254,139.994 389.657 C 139.997 390.019,140.285 390.424,140.633 390.557 C 141.527 390.900,141.600 390.873,141.600 390.200 C 141.600 389.315,142.441 389.470,142.684 390.400 C 142.818 390.911,143.230 391.200,143.823 391.200 C 144.334 391.200,144.859 391.372,144.989 391.583 C 145.119 391.793,145.492 391.863,145.817 391.738 C 146.242 391.575,146.337 391.699,146.154 392.176 C 145.943 392.727,146.080 392.795,146.955 392.576 C 147.556 392.425,148.247 392.507,148.560 392.767 C 148.862 393.017,149.926 393.259,150.924 393.303 C 151.922 393.348,152.707 393.550,152.669 393.753 C 152.631 393.957,153.611 394.083,154.847 394.035 C 156.630 393.965,157.147 394.085,157.350 394.615 C 157.491 394.982,157.853 395.189,158.154 395.073 C 158.454 394.958,159.159 395.101,159.719 395.391 C 160.502 395.798,160.905 395.813,161.468 395.456 C 162.426 394.849,163.691 394.873,163.901 395.502 C 164.012 395.835,163.824 395.913,163.333 395.737 C 162.545 395.453,162.584 395.512,163.777 396.413 C 164.263 396.780,164.441 396.813,164.253 396.500 C 164.088 396.225,164.143 396.000,164.376 396.000 C 164.609 396.000,164.800 396.187,164.800 396.416 C 164.800 396.649,165.489 396.792,166.367 396.740 C 167.229 396.689,168.219 396.884,168.567 397.173 C 169.092 397.608,169.201 397.604,169.206 397.149 C 169.210 396.772,169.304 396.741,169.506 397.051 C 169.871 397.611,173.165 397.963,173.069 397.431 C 173.031 397.220,173.360 396.982,173.800 396.902 C 174.359 396.801,174.446 396.863,174.087 397.110 C 173.576 397.462,175.819 398.361,177.200 398.358 C 177.530 398.358,178.271 398.429,178.847 398.518 C 179.734 398.654,179.866 398.550,179.717 397.839 C 179.548 397.034,179.565 397.030,180.144 397.740 C 180.475 398.147,180.928 398.368,181.150 398.231 C 181.371 398.094,181.934 398.391,182.401 398.891 C 183.093 399.633,183.197 399.663,182.964 399.053 C 182.712 398.394,182.779 398.360,183.539 398.768 C 184.213 399.128,184.401 399.116,184.406 398.714 C 184.410 398.398,184.526 398.354,184.706 398.600 C 184.868 398.820,185.180 399.021,185.400 399.048 C 185.620 399.074,186.394 399.206,187.120 399.342 C 188.107 399.526,188.365 399.463,188.143 399.094 C 187.938 398.753,188.051 398.766,188.506 399.134 C 189.251 399.739,190.163 399.394,189.730 398.672 C 189.518 398.319,189.591 398.312,190.023 398.645 C 190.340 398.890,191.140 399.197,191.800 399.329 C 192.460 399.461,192.775 399.470,192.500 399.351 C 191.581 398.951,191.986 398.400,193.200 398.400 C 193.860 398.400,194.400 398.580,194.400 398.800 C 194.400 399.020,194.940 399.200,195.600 399.200 C 196.260 399.200,196.800 398.999,196.800 398.753 C 196.800 398.467,197.194 398.404,197.900 398.579 C 198.505 398.729,199.315 398.879,199.700 398.911 C 200.085 398.944,200.413 399.248,200.428 399.586 C 200.448 400.014,200.560 399.958,200.800 399.400 C 200.989 398.960,201.156 398.790,201.172 399.023 C 201.210 399.604,206.119 399.442,206.316 398.853 C 206.520 398.240,207.468 398.278,207.710 398.909 C 207.947 399.527,209.942 399.746,210.572 399.223 C 210.837 399.003,211.263 398.992,211.592 399.195 C 211.918 399.397,212.449 399.388,212.848 399.174 C 213.685 398.726,215.600 398.835,215.600 399.330 C 215.600 399.526,215.915 399.559,216.300 399.404 C 216.685 399.249,217.260 399.079,217.578 399.026 C 217.896 398.973,218.226 398.722,218.311 398.468 C 218.414 398.158,218.693 398.129,219.160 398.378 C 219.542 398.583,220.203 398.685,220.627 398.606 C 221.052 398.526,222.356 398.447,223.524 398.431 C 224.831 398.412,225.552 398.246,225.400 398.000 C 225.087 397.493,225.448 397.490,226.386 397.993 C 226.935 398.287,227.179 398.231,227.355 397.772 C 227.510 397.370,227.420 397.245,227.095 397.409 C 226.823 397.547,226.958 397.370,227.395 397.016 C 227.870 396.632,228.247 396.540,228.330 396.789 C 228.406 397.018,228.633 397.103,228.834 396.979 C 229.035 396.855,229.200 396.926,229.200 397.138 C 229.200 397.911,232.575 397.226,233.337 396.298 C 233.876 395.642,234.014 395.589,233.850 396.100 C 233.588 396.915,234.024 397.016,234.737 396.303 C 235.132 395.908,235.310 395.928,235.611 396.403 C 235.862 396.802,235.990 396.834,235.994 396.500 C 235.997 396.225,236.276 396.000,236.613 396.000 C 236.949 396.000,237.329 395.730,237.455 395.400 C 237.753 394.624,238.400 394.624,238.400 395.400 C 238.400 396.096,239.030 396.199,239.420 395.568 C 239.567 395.330,240.118 395.243,240.644 395.375 C 241.330 395.548,241.600 395.448,241.600 395.022 C 241.600 394.125,243.012 393.492,243.555 394.145 C 243.796 394.436,243.905 394.762,243.797 394.870 C 243.688 394.978,243.878 395.067,244.217 395.067 C 244.557 395.067,244.760 394.872,244.668 394.633 C 244.569 394.375,245.004 394.215,245.744 394.238 C 247.416 394.290,248.441 393.991,248.159 393.534 C 248.025 393.316,248.727 393.201,249.838 393.258 C 251.076 393.322,251.806 393.183,251.913 392.862 C 252.042 392.473,252.215 392.477,252.716 392.883 C 253.067 393.167,253.241 393.211,253.103 392.981 C 252.758 392.402,253.513 391.283,253.900 391.800 C 254.344 392.391,255.937 392.342,256.171 391.730 C 256.283 391.439,256.190 391.200,255.964 391.200 C 255.738 391.200,255.659 391.028,255.789 390.817 C 255.919 390.607,256.289 390.536,256.611 390.659 C 256.932 390.783,257.119 391.008,257.025 391.159 C 256.932 391.310,257.193 391.459,257.605 391.490 C 258.067 391.525,258.278 391.349,258.156 391.030 C 258.016 390.664,258.344 390.533,259.279 390.582 C 260.891 390.667,262.400 390.067,262.158 389.436 C 262.060 389.181,262.349 388.944,262.799 388.910 C 263.249 388.876,263.513 389.018,263.385 389.224 C 263.257 389.431,263.337 389.600,263.562 389.600 C 263.788 389.600,264.188 389.195,264.453 388.701 C 264.749 388.147,264.998 387.994,265.100 388.301 C 265.333 389.000,266.777 388.925,267.055 388.200 C 267.182 387.870,267.616 387.600,268.019 387.600 C 268.423 387.600,268.872 387.407,269.017 387.172 C 269.395 386.561,270.960 386.038,271.215 386.437 C 271.334 386.622,271.939 386.509,272.561 386.186 C 273.183 385.864,273.941 385.600,274.246 385.600 C 274.551 385.600,274.800 385.398,274.800 385.151 C 274.800 384.835,274.973 384.846,275.384 385.187 C 275.869 385.590,275.940 385.527,275.803 384.815 C 275.668 384.115,275.783 384.004,276.428 384.209 C 277.239 384.466,279.600 383.643,279.600 383.102 C 279.600 382.936,279.858 382.800,280.174 382.800 C 281.485 382.800,282.996 381.969,282.386 381.583 C 282.027 381.356,281.984 381.210,282.276 381.206 C 282.538 381.203,282.859 381.372,282.989 381.583 C 283.119 381.793,283.489 381.864,283.811 381.741 C 284.132 381.617,284.311 381.380,284.209 381.214 C 284.106 381.048,284.468 380.961,285.013 381.021 C 285.558 381.081,285.902 380.966,285.778 380.765 C 285.654 380.564,285.898 380.400,286.320 380.400 C 286.743 380.400,287.428 379.948,287.843 379.395 C 288.264 378.834,288.844 378.485,289.156 378.605 C 289.464 378.723,290.081 378.500,290.527 378.110 C 290.973 377.719,291.206 377.625,291.045 377.900 C 290.884 378.175,290.943 378.400,291.176 378.400 C 291.409 378.400,291.600 378.220,291.600 378.000 C 291.600 377.780,291.827 377.600,292.104 377.600 C 292.381 377.600,293.060 377.181,293.612 376.669 C 294.164 376.157,294.862 375.821,295.164 375.921 C 295.491 376.030,295.600 375.924,295.435 375.656 C 295.259 375.372,295.384 375.296,295.779 375.447 C 296.121 375.578,296.400 375.486,296.400 375.243 C 296.400 374.999,296.771 374.800,297.224 374.800 C 297.677 374.800,297.936 374.620,297.800 374.400 C 297.664 374.180,297.743 373.977,297.976 373.950 C 298.209 373.923,298.587 373.878,298.815 373.850 C 299.043 373.822,299.378 373.560,299.559 373.266 C 299.741 372.972,299.959 372.762,300.045 372.799 C 300.865 373.152,302.338 372.232,301.991 371.583 C 301.755 371.143,301.745 370.758,301.965 370.622 C 302.167 370.497,302.392 370.573,302.466 370.790 C 302.551 371.041,303.040 371.054,303.800 370.827 C 304.475 370.626,304.683 370.454,304.276 370.434 C 303.878 370.415,303.666 370.217,303.804 369.993 C 303.942 369.770,304.223 369.691,304.428 369.817 C 304.632 369.944,304.800 369.846,304.800 369.600 C 304.800 369.354,304.980 369.264,305.200 369.400 C 305.420 369.536,305.600 369.444,305.600 369.197 C 305.600 368.934,305.921 368.848,306.368 368.990 C 307.149 369.238,309.352 367.369,308.983 366.773 C 308.887 366.618,309.167 366.397,309.605 366.283 C 310.043 366.168,310.300 366.238,310.177 366.437 C 310.054 366.637,310.143 366.800,310.376 366.800 C 310.609 366.800,310.800 366.609,310.800 366.376 C 310.800 366.143,310.980 366.064,311.200 366.200 C 311.427 366.340,311.600 366.004,311.600 365.424 C 311.600 364.861,311.799 364.400,312.043 364.400 C 312.286 364.400,312.386 364.661,312.263 364.980 C 312.115 365.367,312.233 365.485,312.620 365.337 C 312.939 365.214,313.200 364.943,313.200 364.734 C 313.200 364.524,313.425 364.488,313.700 364.653 C 314.055 364.867,314.045 364.762,313.664 364.293 C 313.200 363.720,313.228 363.651,313.880 363.777 C 314.294 363.857,315.345 363.490,316.216 362.963 C 317.087 362.436,317.575 362.003,317.300 362.002 C 317.025 362.001,316.800 361.811,316.800 361.580 C 316.800 361.310,317.032 361.290,317.450 361.524 C 318.168 361.926,320.400 359.961,320.400 358.927 C 320.400 358.502,320.581 358.469,321.176 358.787 C 321.730 359.083,322.033 359.070,322.238 358.739 C 322.426 358.435,322.332 358.376,321.962 358.568 C 321.653 358.728,321.715 358.601,322.100 358.286 C 322.485 357.970,322.800 357.487,322.800 357.213 C 322.800 356.939,323.064 356.816,323.387 356.940 C 323.720 357.068,324.454 356.688,325.087 356.059 C 325.699 355.451,326.526 354.830,326.925 354.680 C 327.324 354.529,327.540 354.226,327.405 354.007 C 327.262 353.778,327.421 353.710,327.779 353.847 C 328.121 353.978,328.400 353.889,328.400 353.648 C 328.400 353.407,329.127 352.751,330.015 352.191 C 330.903 351.630,331.523 350.999,331.392 350.787 C 331.262 350.576,331.615 350.194,332.177 349.937 C 332.740 349.681,333.200 349.320,333.200 349.136 C 333.200 348.951,333.464 348.800,333.786 348.800 C 334.415 348.800,335.321 347.454,334.945 347.078 C 334.649 346.782,335.926 344.959,336.308 345.134 C 336.468 345.208,336.825 345.455,337.100 345.683 C 337.627 346.121,337.744 345.884,337.611 344.644 C 337.554 344.109,337.713 343.958,338.153 344.126 C 338.495 344.258,338.884 344.188,339.017 343.973 C 339.150 343.757,339.111 343.630,338.930 343.690 C 337.803 344.066,339.523 341.491,340.891 340.754 C 341.446 340.455,341.531 340.514,341.323 341.056 C 341.143 341.524,341.213 341.639,341.551 341.430 C 341.819 341.265,341.985 340.740,341.919 340.265 C 341.818 339.532,341.984 339.410,343.000 339.469 C 343.660 339.506,343.885 339.448,343.500 339.339 C 342.594 339.083,342.613 338.967,343.764 337.726 C 344.294 337.154,344.978 336.783,345.285 336.900 C 345.591 337.018,346.259 336.681,346.768 336.151 C 347.459 335.434,347.518 335.257,347.001 335.455 C 346.398 335.686,346.368 335.608,346.768 334.861 C 347.264 333.932,348.398 333.682,348.402 334.500 C 348.404 334.775,348.686 334.460,349.030 333.801 C 349.847 332.233,350.826 331.169,351.225 331.415 C 351.637 331.670,352.128 330.131,351.802 329.604 C 351.665 329.382,351.730 329.200,351.947 329.200 C 352.164 329.200,352.419 329.515,352.513 329.900 C 352.608 330.287,352.824 329.832,352.997 328.881 C 353.228 327.603,353.474 327.196,353.954 327.293 C 354.669 327.437,356.079 325.914,355.973 325.111 C 355.854 324.212,355.991 323.599,356.300 323.647 C 357.125 323.778,357.600 323.541,357.600 323.000 C 357.600 322.670,357.735 322.445,357.900 322.500 C 358.065 322.555,358.257 322.420,358.326 322.200 C 358.396 321.980,358.846 321.563,359.326 321.272 C 360.094 320.809,360.103 320.774,359.400 320.986 C 358.858 321.150,359.084 320.778,360.100 319.834 C 360.925 319.068,361.600 318.142,361.600 317.778 C 361.600 317.352,361.815 317.197,362.200 317.345 C 362.910 317.617,362.989 317.149,362.342 316.502 C 361.999 316.159,362.085 316.097,362.687 316.255 C 363.202 316.389,363.580 316.230,363.740 315.811 C 363.908 315.373,363.828 315.241,363.495 315.409 C 363.223 315.547,363.309 315.406,363.686 315.096 C 364.226 314.653,364.268 314.426,363.886 314.038 C 363.504 313.648,363.528 313.570,364.000 313.671 C 364.368 313.750,364.578 313.529,364.544 313.100 C 364.493 312.447,364.894 312.209,365.768 312.375 C 365.970 312.414,365.897 312.157,365.605 311.806 C 365.203 311.321,365.186 311.054,365.537 310.703 C 365.888 310.352,366.000 310.368,366.000 310.769 C 366.000 311.194,366.118 311.200,366.600 310.800 C 366.930 310.526,367.200 310.054,367.200 309.751 C 367.200 309.448,367.399 309.200,367.643 309.200 C 367.886 309.200,367.978 308.921,367.847 308.579 C 367.703 308.202,367.775 308.061,368.032 308.219 C 368.264 308.363,368.552 308.104,368.672 307.645 C 368.793 307.185,369.050 306.908,369.245 307.028 C 369.440 307.149,369.613 307.102,369.630 306.924 C 369.738 305.748,370.077 304.589,370.442 304.149 C 370.677 303.866,370.753 303.447,370.611 303.218 C 370.457 302.969,370.767 302.800,371.376 302.800 C 372.442 302.800,372.737 302.255,371.938 301.762 C 371.629 301.571,371.582 301.662,371.797 302.038 C 372.056 302.493,372.014 302.504,371.579 302.100 C 371.191 301.740,371.162 301.478,371.475 301.165 C 371.788 300.852,371.985 300.852,372.178 301.165 C 372.615 301.872,373.200 301.663,373.200 300.800 C 373.200 300.360,373.374 300.000,373.587 300.000 C 373.801 300.000,373.860 299.700,373.719 299.334 C 373.533 298.848,373.608 298.758,374.000 299.000 C 374.392 299.242,374.467 299.152,374.281 298.666 C 374.106 298.212,374.233 298.000,374.679 298.000 C 375.039 298.000,375.222 297.889,375.086 297.752 C 374.950 297.616,375.101 297.242,375.423 296.920 C 375.744 296.599,375.917 296.189,375.806 296.010 C 375.695 295.830,375.894 295.573,376.247 295.437 C 376.744 295.247,376.786 295.065,376.432 294.638 C 376.072 294.204,376.194 293.925,377.004 293.335 C 377.616 292.890,378.092 292.100,378.176 291.392 C 378.258 290.703,378.525 290.249,378.810 290.317 C 379.126 290.392,379.226 290.141,379.089 289.617 C 378.971 289.168,379.038 288.800,379.237 288.800 C 379.437 288.800,379.600 288.524,379.600 288.187 C 379.600 287.851,379.857 287.476,380.170 287.356 C 380.484 287.236,380.860 286.431,381.005 285.569 C 381.151 284.706,381.457 284.000,381.684 284.000 C 381.929 284.000,381.892 283.751,381.592 283.391 C 381.174 282.887,381.191 282.822,381.692 283.014 C 382.327 283.258,382.974 282.205,382.581 281.568 C 382.458 281.371,382.599 281.302,382.894 281.414 C 383.232 281.544,383.429 281.322,383.429 280.810 C 383.429 280.364,383.287 280.000,383.114 280.000 C 382.941 280.000,382.800 279.799,382.800 279.553 C 382.800 279.304,383.153 279.199,383.600 279.316 C 384.373 279.518,384.562 279.181,384.507 277.700 C 384.497 277.425,384.701 277.200,384.959 277.200 C 385.218 277.200,385.458 276.819,385.494 276.353 C 385.551 275.586,385.510 275.570,385.064 276.180 C 384.613 276.797,384.571 276.786,384.571 276.056 C 384.571 275.618,384.670 275.320,384.790 275.394 C 385.680 275.944,386.954 273.376,386.338 272.275 C 386.068 271.792,386.252 271.479,387.090 270.992 C 387.743 270.614,387.871 270.444,387.400 270.580 C 386.628 270.802,386.630 270.786,387.438 270.105 C 388.049 269.592,388.256 268.993,388.203 267.900 C 388.162 267.075,388.293 266.400,388.493 266.400 C 389.112 266.400,390.065 265.229,389.798 264.797 C 389.659 264.571,389.377 264.491,389.172 264.617 C 388.968 264.744,388.800 264.556,388.800 264.200 C 388.800 263.844,388.980 263.664,389.200 263.800 C 389.420 263.936,389.600 263.857,389.600 263.624 C 389.600 263.391,389.870 263.200,390.200 263.200 C 390.530 263.200,390.800 262.919,390.800 262.576 C 390.800 262.233,390.639 262.052,390.442 262.174 C 390.245 262.296,389.977 262.117,389.846 261.777 C 389.716 261.437,389.755 261.249,389.933 261.359 C 390.501 261.709,391.600 260.034,391.600 258.819 C 391.600 258.175,391.780 257.536,392.000 257.400 C 392.220 257.264,392.400 257.373,392.400 257.643 C 392.400 257.913,392.483 258.050,392.584 257.949 C 392.938 257.596,392.313 256.042,391.769 255.921 C 391.380 255.835,391.334 255.626,391.611 255.200 C 391.957 254.667,392.044 254.667,392.394 255.200 C 392.611 255.530,392.806 255.620,392.827 255.400 C 393.116 252.477,393.266 251.805,393.696 251.532 C 393.973 251.356,394.059 251.209,393.886 251.206 C 393.713 251.203,393.776 250.818,394.026 250.352 C 394.284 249.869,394.307 249.610,394.078 249.752 C 393.858 249.888,393.992 249.145,394.376 248.100 C 394.761 247.055,395.044 245.528,395.006 244.708 C 394.956 243.625,395.062 243.320,395.396 243.596 C 395.721 243.867,395.859 243.661,395.869 242.889 C 395.877 242.290,396.103 241.012,396.371 240.049 C 396.718 238.803,396.735 238.175,396.429 237.869 C 395.658 237.098,395.970 236.401,397.100 236.368 C 397.705 236.351,397.985 236.249,397.722 236.143 C 397.460 236.036,397.344 235.690,397.465 235.374 C 397.608 235.003,397.423 234.798,396.943 234.794 C 396.344 234.789,396.311 234.717,396.772 234.426 C 397.483 233.976,397.693 232.802,397.065 232.794 C 396.798 232.790,396.850 232.630,397.188 232.416 C 397.512 232.211,397.650 231.917,397.495 231.761 C 397.339 231.606,397.495 231.273,397.840 231.021 C 398.500 230.538,398.259 227.393,397.593 227.804 C 397.418 227.912,397.369 227.641,397.484 227.201 C 397.599 226.760,397.953 226.400,398.270 226.400 C 398.588 226.400,398.736 226.220,398.600 226.000 C 398.464 225.780,398.543 225.600,398.776 225.600 C 399.009 225.600,399.200 225.409,399.200 225.176 C 399.200 224.943,399.020 224.864,398.800 225.000 C 398.580 225.136,398.400 225.057,398.400 224.824 C 398.400 224.591,398.560 224.400,398.755 224.400 C 398.950 224.400,399.187 223.870,399.282 223.221 C 399.377 222.573,399.308 222.133,399.129 222.244 C 398.949 222.355,398.956 222.030,399.143 221.523 C 399.331 221.015,399.465 219.835,399.442 218.900 C 399.419 217.965,399.539 217.200,399.710 217.200 C 400.160 217.200,399.874 213.054,399.400 212.706 C 399.152 212.524,399.190 212.410,399.500 212.406 C 399.852 212.402,400.000 211.570,400.000 209.600 C 400.000 208.060,399.859 206.800,399.686 206.800 C 399.513 206.800,399.371 206.440,399.371 206.000 C 399.371 205.560,399.485 205.200,399.625 205.200 C 400.091 205.200,399.958 202.621,399.476 202.315 C 399.115 202.086,399.121 202.011,399.500 202.006 C 400.190 201.998,400.194 197.331,399.505 197.102 C 399.111 196.970,399.112 196.712,399.507 195.845 C 400.052 194.649,399.780 192.804,399.057 192.794 C 398.805 192.791,398.870 192.613,399.200 192.400 C 399.530 192.187,399.643 192.009,399.451 192.006 C 399.259 192.003,399.279 191.775,399.496 191.500 C 400.076 190.764,400.050 184.802,399.467 184.794 C 399.162 184.790,399.185 184.670,399.533 184.450 C 399.975 184.169,399.978 183.729,399.549 181.884 C 399.264 180.659,398.905 179.735,398.751 179.830 C 398.596 179.926,398.531 179.688,398.605 179.302 C 398.678 178.916,398.755 178.510,398.776 178.400 C 398.796 178.290,398.987 178.470,399.200 178.800 C 399.413 179.130,399.588 179.220,399.588 179.000 C 399.588 178.780,399.421 178.336,399.217 178.013 C 398.982 177.642,399.002 177.239,399.272 176.913 C 399.576 176.547,399.569 176.400,399.249 176.400 C 399.002 176.400,398.800 175.990,398.800 175.489 C 398.800 174.988,398.532 174.195,398.204 173.727 C 397.678 172.976,397.677 172.743,398.199 171.738 C 398.524 171.112,398.644 170.551,398.466 170.490 C 398.287 170.430,398.220 169.847,398.315 169.195 C 398.431 168.409,398.296 167.935,397.916 167.789 C 397.536 167.643,397.402 167.170,397.517 166.381 C 397.613 165.727,397.469 164.924,397.197 164.596 C 396.802 164.121,396.806 164.000,397.213 164.000 C 397.494 164.000,397.246 163.589,396.662 163.087 C 396.078 162.585,395.603 161.820,395.606 161.387 C 395.611 160.732,395.678 160.701,396.000 161.200 C 396.430 161.866,396.459 161.828,396.604 160.400 C 396.660 159.850,396.534 159.291,396.324 159.159 C 396.114 159.026,395.891 158.265,395.828 157.468 C 395.765 156.670,395.489 155.748,395.215 155.419 C 394.927 155.071,394.777 154.076,394.859 153.048 C 394.937 152.073,394.884 151.348,394.743 151.435 C 394.363 151.670,393.930 149.637,394.250 149.120 C 394.406 148.867,394.343 148.788,394.104 148.936 C 393.873 149.079,393.585 148.938,393.464 148.624 C 393.344 148.309,393.460 147.964,393.722 147.857 C 393.985 147.751,393.750 147.646,393.200 147.625 C 392.633 147.604,392.390 147.461,392.639 147.294 C 393.223 146.903,393.186 145.665,392.554 144.446 C 392.272 143.902,392.132 143.309,392.244 143.129 C 392.356 142.948,392.257 142.800,392.024 142.800 C 391.791 142.800,391.600 142.530,391.600 142.200 C 391.600 141.870,391.330 141.600,391.000 141.600 C 390.670 141.600,390.400 141.401,390.400 141.157 C 390.400 140.914,390.651 140.811,390.958 140.928 C 391.391 141.095,391.448 140.903,391.212 140.071 C 391.046 139.482,390.683 139.052,390.407 139.116 C 390.060 139.196,389.982 138.925,390.154 138.240 C 390.342 137.493,390.184 137.094,389.519 136.628 C 388.691 136.048,388.679 135.977,389.334 135.498 C 389.995 135.014,389.990 134.940,389.241 134.136 C 388.805 133.668,388.534 133.199,388.639 133.094 C 388.744 132.989,388.608 132.417,388.338 131.823 C 387.931 130.931,387.946 130.679,388.423 130.377 C 388.857 130.103,388.870 130.011,388.476 130.006 C 388.188 130.003,388.065 129.819,388.202 129.597 C 388.339 129.376,388.169 129.086,387.825 128.954 C 387.481 128.822,387.200 128.374,387.200 127.957 C 387.200 127.541,387.020 127.200,386.800 127.200 C 386.580 127.200,386.400 126.855,386.400 126.433 C 386.400 125.290,385.966 124.374,385.547 124.633 C 385.337 124.762,385.267 124.354,385.385 123.687 C 385.573 122.619,385.503 122.529,384.621 122.698 C 383.770 122.861,383.655 122.742,383.684 121.725 C 383.702 121.087,383.517 120.192,383.273 119.736 C 383.028 119.279,382.942 118.792,383.081 118.653 C 383.220 118.514,383.140 118.400,382.904 118.400 C 382.661 118.400,382.573 118.025,382.700 117.537 C 382.825 117.063,382.763 116.774,382.563 116.895 C 382.008 117.232,381.327 116.287,381.401 115.283 C 381.453 114.585,381.306 114.439,380.734 114.621 C 379.965 114.865,379.708 114.228,380.401 113.799 C 380.662 113.638,380.632 113.245,380.316 112.676 C 380.049 112.194,379.866 111.671,379.910 111.514 C 379.954 111.357,379.734 111.327,379.420 111.448 C 379.015 111.603,378.771 111.250,378.581 110.237 C 378.408 109.319,378.149 108.905,377.856 109.080 C 377.605 109.231,377.647 109.049,377.949 108.677 C 378.498 108.000,378.194 107.760,377.051 107.969 C 376.859 108.004,376.817 107.733,376.958 107.366 C 377.099 106.999,377.009 106.451,376.758 106.149 C 376.507 105.847,376.445 105.600,376.621 105.600 C 376.796 105.600,376.517 105.150,376.000 104.600 C 375.483 104.050,375.272 103.600,375.530 103.600 C 375.789 103.600,376.000 103.409,376.000 103.176 C 376.000 102.943,375.789 102.883,375.532 103.042 C 375.218 103.236,375.147 103.114,375.318 102.670 C 375.457 102.307,375.443 102.046,375.286 102.090 C 374.762 102.237,373.174 101.165,373.392 100.812 C 373.511 100.621,373.334 100.191,373.001 99.858 C 372.630 99.487,372.549 99.155,372.793 99.004 C 373.323 98.677,372.339 97.602,371.800 97.919 C 371.580 98.048,371.670 97.814,372.000 97.400 C 372.330 96.986,372.380 96.778,372.112 96.940 C 371.795 97.130,371.533 96.874,371.367 96.209 C 371.204 95.562,370.870 95.225,370.458 95.293 C 369.980 95.371,369.818 95.107,369.848 94.300 C 369.874 93.618,369.683 93.200,369.345 93.200 C 369.045 93.200,368.800 92.876,368.800 92.480 C 368.800 91.505,368.039 90.810,367.286 91.099 C 366.909 91.244,366.771 91.170,366.932 90.910 C 367.077 90.676,366.881 90.362,366.498 90.213 C 365.849 89.962,365.854 89.903,366.576 89.371 C 367.004 89.057,367.151 88.800,366.903 88.800 C 366.656 88.800,366.346 88.458,366.213 88.041 C 366.038 87.490,365.729 87.345,365.086 87.510 C 364.276 87.719,364.251 87.677,364.787 87.024 C 365.441 86.227,363.971 84.523,363.097 85.064 C 362.850 85.216,362.795 85.131,362.964 84.858 C 363.421 84.119,362.810 82.711,362.143 82.966 C 361.816 83.092,361.666 83.017,361.803 82.795 C 361.937 82.578,361.862 82.400,361.636 82.400 C 361.410 82.400,361.333 82.120,361.464 81.778 C 361.603 81.415,361.344 80.821,360.843 80.354 C 360.369 79.913,360.104 79.355,360.253 79.114 C 360.409 78.862,360.340 78.790,360.091 78.944 C 359.849 79.093,359.535 78.826,359.381 78.341 C 359.131 77.553,359.068 77.535,358.720 78.157 C 358.418 78.696,358.214 78.743,357.772 78.377 C 357.462 78.120,357.300 77.762,357.411 77.582 C 357.522 77.402,357.427 77.140,357.200 77.000 C 356.973 76.860,356.893 76.574,357.022 76.365 C 357.495 75.600,355.577 73.121,354.928 73.660 C 354.202 74.262,353.409 73.312,354.021 72.574 C 354.269 72.275,354.126 71.876,353.599 71.399 C 353.159 71.001,352.795 70.839,352.790 71.038 C 352.775 71.569,350.695 67.490,350.680 66.898 C 350.671 66.546,350.456 66.587,349.959 67.038 C 349.569 67.390,349.059 67.560,348.825 67.416 C 348.287 67.083,348.267 66.000,348.800 66.000 C 349.020 66.000,349.200 65.790,349.200 65.533 C 349.200 65.277,349.091 65.176,348.957 65.309 C 348.824 65.443,348.340 65.203,347.882 64.776 C 347.424 64.349,346.813 64.000,346.525 64.000 C 346.236 64.000,346.021 63.865,346.047 63.700 C 346.167 62.942,345.976 61.891,345.758 62.109 C 345.624 62.242,344.124 60.922,342.424 59.176 C 340.724 57.429,339.123 56.000,338.866 56.000 C 338.610 56.000,338.445 55.853,338.500 55.674 C 338.555 55.495,337.980 54.730,337.221 53.974 C 336.463 53.218,335.996 52.853,336.183 53.162 C 336.415 53.544,336.376 53.632,336.062 53.438 C 335.808 53.281,335.600 52.872,335.600 52.530 C 335.600 52.112,335.347 51.973,334.830 52.108 C 334.245 52.261,334.119 52.152,334.305 51.655 C 334.522 51.074,334.469 51.066,333.839 51.578 C 333.220 52.083,333.141 52.083,333.228 51.578 C 333.395 50.599,332.753 49.600,331.957 49.600 C 331.541 49.600,331.200 49.330,331.200 49.000 C 331.200 48.670,330.936 48.400,330.613 48.400 C 330.229 48.400,330.114 48.169,330.281 47.734 C 330.447 47.300,330.380 47.165,330.087 47.346 C 329.566 47.668,327.941 46.418,328.244 45.929 C 328.446 45.602,327.859 45.446,326.900 45.570 C 326.625 45.606,326.400 45.340,326.400 44.980 C 326.400 44.620,326.048 44.233,325.619 44.121 C 325.189 44.008,324.555 43.485,324.209 42.958 C 323.864 42.431,323.384 42.000,323.142 42.000 C 322.865 42.000,322.904 42.244,323.248 42.658 C 323.737 43.247,323.689 43.283,322.797 43.008 C 321.445 42.591,321.404 42.521,322.043 41.733 C 322.349 41.355,322.399 41.167,322.153 41.314 C 321.908 41.461,321.368 41.194,320.953 40.722 C 320.463 40.162,320.409 39.978,320.800 40.193 C 321.130 40.374,321.040 40.156,320.600 39.707 C 320.123 39.220,319.647 39.033,319.420 39.245 C 318.901 39.730,318.294 39.695,318.602 39.197 C 318.739 38.976,318.569 38.686,318.225 38.554 C 317.881 38.422,317.597 37.929,317.594 37.457 C 317.589 36.757,317.517 36.710,317.200 37.200 C 316.942 37.600,316.810 37.633,316.806 37.300 C 316.803 37.025,316.530 36.800,316.200 36.800 C 315.870 36.800,315.600 36.620,315.600 36.400 C 315.600 36.180,315.465 36.045,315.300 36.100 C 315.135 36.155,314.588 35.788,314.085 35.285 C 313.582 34.782,313.016 34.466,312.827 34.583 C 312.638 34.700,312.390 34.551,312.276 34.253 C 312.040 33.638,310.400 33.089,310.400 33.625 C 310.400 33.817,310.125 33.870,309.790 33.741 C 309.308 33.556,309.280 33.386,309.656 32.933 C 310.040 32.470,309.966 32.316,309.270 32.134 C 308.797 32.010,308.508 31.750,308.628 31.555 C 308.835 31.220,308.291 31.089,306.718 31.092 C 306.343 31.092,306.073 30.959,306.118 30.795 C 306.197 30.506,304.141 28.400,303.779 28.400 C 303.681 28.400,303.600 28.664,303.600 28.987 C 303.600 29.334,303.364 29.484,303.025 29.354 C 302.709 29.233,302.548 28.879,302.668 28.567 C 302.788 28.255,302.676 28.000,302.419 28.000 C 302.163 28.000,302.063 27.822,302.197 27.605 C 302.334 27.384,302.185 27.307,301.862 27.432 C 301.543 27.554,300.917 27.263,300.471 26.785 C 300.026 26.306,299.480 26.027,299.258 26.164 C 299.036 26.301,298.601 26.052,298.292 25.610 C 297.982 25.167,297.144 24.689,296.430 24.546 C 295.716 24.403,295.028 24.017,294.901 23.687 C 294.706 23.179,294.591 23.197,294.147 23.805 C 293.514 24.671,292.919 23.709,293.366 22.543 C 293.561 22.037,293.498 21.986,293.096 22.321 C 292.780 22.583,292.349 22.616,292.006 22.404 C 291.694 22.211,291.250 22.160,291.019 22.291 C 290.789 22.421,290.720 22.394,290.867 22.230 C 291.405 21.630,289.910 20.420,289.140 20.832 C 288.587 21.128,288.468 21.089,288.631 20.663 C 288.776 20.287,288.547 20.111,287.922 20.117 C 286.698 20.131,285.550 19.605,285.826 19.158 C 285.948 18.961,285.666 18.800,285.200 18.800 C 284.734 18.800,284.463 18.622,284.597 18.405 C 284.737 18.178,284.577 18.111,284.223 18.246 C 283.883 18.377,283.715 18.662,283.850 18.880 C 283.988 19.104,283.768 19.213,283.347 19.131 C 282.936 19.051,282.574 18.629,282.543 18.193 C 282.438 16.756,282.404 16.699,281.900 17.105 C 281.304 17.585,279.600 17.041,279.600 16.370 C 279.600 16.119,279.330 16.018,279.000 16.145 C 278.670 16.271,278.400 16.201,278.400 15.987 C 278.400 15.774,278.040 15.600,277.600 15.600 C 277.107 15.600,276.798 15.331,276.794 14.900 C 276.789 14.302,276.731 14.287,276.400 14.800 C 276.097 15.268,276.011 15.280,276.006 14.853 C 276.002 14.508,275.711 14.382,275.215 14.512 C 274.783 14.625,274.230 14.477,273.985 14.182 C 273.741 13.888,273.285 13.746,272.971 13.867 C 272.657 13.987,272.400 13.876,272.400 13.619 C 272.400 13.363,272.220 13.264,272.000 13.400 C 271.780 13.536,271.597 13.412,271.594 13.124 C 271.589 12.743,271.482 12.764,271.200 13.200 C 270.942 13.600,270.810 13.633,270.806 13.300 C 270.803 13.025,270.545 12.800,270.233 12.800 C 269.922 12.800,269.562 12.575,269.433 12.300 C 269.247 11.900,269.153 11.900,268.967 12.300 C 268.634 13.013,268.000 12.919,268.000 12.157 C 268.000 11.741,267.782 11.598,267.379 11.753 C 266.963 11.912,266.850 11.828,267.038 11.495 C 267.256 11.109,267.199 11.110,266.779 11.500 C 266.156 12.078,265.041 12.181,265.382 11.629 C 265.508 11.425,265.249 11.143,264.806 11.002 C 264.363 10.861,264.000 10.559,264.000 10.330 C 264.000 10.102,263.736 10.016,263.413 10.140 C 263.090 10.264,262.726 10.204,262.604 10.007 C 262.483 9.810,262.018 9.719,261.572 9.805 C 261.126 9.891,260.417 9.617,259.995 9.195 C 259.564 8.764,259.125 8.598,258.990 8.816 C 258.719 9.254,257.631 8.774,256.631 7.774 C 256.267 7.410,256.000 7.334,256.000 7.595 C 256.000 7.844,255.820 7.936,255.600 7.800 C 255.380 7.664,255.200 7.803,255.200 8.110 C 255.200 8.416,254.930 8.667,254.600 8.667 C 254.270 8.667,254.000 8.537,254.000 8.379 C 254.000 7.975,252.093 6.772,251.169 6.594 C 250.744 6.512,250.218 6.335,249.998 6.199 C 249.779 6.064,249.600 6.133,249.600 6.353 C 249.600 6.577,249.117 6.501,248.500 6.179 C 247.895 5.863,247.096 5.604,246.724 5.602 C 246.352 5.601,245.936 5.420,245.800 5.200 C 245.664 4.980,245.338 4.814,245.076 4.832 C 244.733 4.854,244.739 4.919,245.100 5.065 C 245.375 5.176,245.600 5.426,245.600 5.621 C 245.600 6.090,244.484 5.667,243.000 4.636 C 241.644 3.695,241.719 3.694,240.976 4.673 C 240.461 5.353,240.425 5.354,240.413 4.700 C 240.406 4.315,240.130 4.000,239.800 4.000 C 239.470 4.000,239.200 3.852,239.200 3.671 C 239.200 3.106,235.952 3.430,235.580 4.032 C 235.313 4.463,235.120 4.287,234.775 3.300 C 234.526 2.586,234.140 2.113,233.918 2.250 C 233.657 2.412,233.677 2.601,233.976 2.785 C 234.301 2.986,234.232 3.238,233.742 3.635 C 233.249 4.036,233.137 4.049,233.358 3.682 C 233.848 2.867,232.833 1.875,232.116 2.469 C 231.771 2.756,231.431 2.798,231.270 2.574 C 231.121 2.368,230.280 2.204,229.400 2.209 C 228.520 2.214,227.695 2.072,227.566 1.892 C 227.437 1.713,226.581 1.735,225.664 1.941 C 224.540 2.194,223.911 2.179,223.736 1.896 C 223.584 1.651,223.669 1.595,223.938 1.762 C 224.192 1.919,224.400 1.887,224.400 1.692 C 224.400 1.497,223.589 1.371,222.598 1.412 C 221.317 1.466,220.902 1.359,221.164 1.044 C 221.415 0.740,221.238 0.600,220.604 0.600 C 220.094 0.600,219.772 0.754,219.888 0.943 C 220.005 1.131,219.726 1.167,219.268 1.022 C 217.882 0.582,214.400 0.436,214.400 0.817 C 214.400 1.014,214.100 1.060,213.734 0.919 C 213.312 0.757,213.166 0.822,213.336 1.097 C 213.497 1.356,213.323 1.483,212.902 1.412 C 212.516 1.347,212.249 1.079,212.310 0.817 C 212.370 0.555,212.248 0.447,212.038 0.577 C 211.827 0.707,211.537 0.621,211.392 0.387 C 211.209 0.091,210.957 0.104,210.564 0.430 C 210.254 0.687,210.000 0.741,210.000 0.549 C 210.000 0.008,206.261 -0.012,205.877 0.527 C 205.619 0.887,205.491 0.881,205.336 0.500 C 205.212 0.194,204.360 0.000,203.143 0.000 C 201.657 0.000,201.229 0.127,201.453 0.500 C 201.657 0.840,201.537 0.824,201.077 0.451 C 200.503 -0.014,200.297 -0.014,199.723 0.451 C 199.351 0.753,199.163 0.805,199.306 0.567 C 199.483 0.269,198.504 0.133,196.182 0.133 C 194.322 0.133,192.800 0.283,192.800 0.467 C 192.800 0.650,192.519 0.800,192.176 0.800 C 191.833 0.800,191.645 0.650,191.759 0.467 C 192.007 0.065,189.420 0.017,188.782 0.411 M146.388 7.014 C 146.112 7.347,146.002 7.735,146.143 7.876 C 146.284 8.018,146.400 7.913,146.400 7.643 C 146.400 7.373,146.568 7.256,146.772 7.383 C 146.977 7.509,147.250 7.443,147.379 7.234 C 147.786 6.575,146.914 6.381,146.388 7.014 M347.722 65.623 C 347.898 66.298,347.835 66.361,347.369 65.974 C 346.732 65.446,346.614 64.800,347.153 64.800 C 347.348 64.800,347.604 65.170,347.722 65.623 M357.200 76.551 C 357.200 76.634,357.470 76.926,357.800 77.200 C 358.291 77.608,358.400 77.580,358.400 77.049 C 358.400 76.692,358.130 76.400,357.800 76.400 C 357.470 76.400,357.200 76.468,357.200 76.551 M124.740 93.068 C 124.418 93.460,125.432 93.558,125.900 93.181 C 126.202 92.937,127.088 92.990,127.700 93.288 C 128.134 93.499,128.400 93.472,128.400 93.217 C 128.400 92.778,129.792 92.858,130.256 93.323 C 130.680 93.747,131.279 93.652,131.003 93.205 C 130.863 92.978,131.023 92.911,131.379 93.047 C 131.721 93.178,132.000 93.086,132.000 92.843 C 132.000 92.188,132.545 92.303,133.454 93.150 C 133.897 93.563,134.747 93.900,135.343 93.900 C 135.939 93.900,136.736 94.169,137.113 94.498 C 137.491 94.827,137.998 95.023,138.240 94.934 C 138.482 94.846,138.900 95.039,139.169 95.363 C 139.438 95.687,139.915 95.854,140.229 95.733 C 140.591 95.595,140.800 95.773,140.800 96.219 C 140.800 96.877,140.849 96.880,141.531 96.262 C 142.522 95.366,142.709 95.426,142.580 96.600 C 142.468 97.624,142.663 97.734,144.400 97.626 C 145.191 97.577,145.275 97.648,144.802 97.966 C 144.078 98.453,145.422 99.711,146.325 99.392 C 146.677 99.267,146.808 99.501,146.725 100.103 C 146.625 100.822,146.818 101.025,147.700 101.127 C 148.305 101.196,148.800 101.440,148.800 101.669 C 148.800 101.898,148.536 101.984,148.213 101.860 C 147.890 101.736,147.502 101.835,147.351 102.079 C 147.184 102.349,147.259 102.411,147.541 102.236 C 147.804 102.074,148.115 102.234,148.257 102.605 C 148.396 102.966,148.980 103.449,149.555 103.678 C 150.153 103.917,150.386 104.175,150.100 104.281 C 149.825 104.383,149.600 104.741,149.600 105.076 C 149.600 105.435,149.831 105.597,150.161 105.470 C 151.039 105.133,151.262 105.663,150.494 106.260 C 149.838 106.771,149.840 106.831,150.542 107.375 C 150.950 107.691,151.204 108.186,151.107 108.475 C 151.009 108.764,151.158 109.180,151.438 109.400 C 151.717 109.620,151.991 110.520,152.047 111.400 C 152.103 112.280,152.317 113.225,152.523 113.500 C 152.767 113.825,152.741 114.000,152.449 114.000 C 151.837 114.000,151.878 115.084,152.500 115.336 C 152.878 115.490,152.857 115.639,152.412 115.948 C 152.088 116.173,151.951 116.485,152.108 116.641 C 152.265 116.798,152.206 117.152,151.977 117.428 C 151.689 117.775,151.690 118.008,151.981 118.188 C 152.211 118.331,152.400 118.227,152.400 117.957 C 152.400 117.687,152.516 117.582,152.657 117.724 C 152.798 117.865,152.688 118.253,152.412 118.585 C 152.136 118.918,152.013 119.456,152.138 119.782 C 152.263 120.108,152.177 120.490,151.948 120.632 C 151.718 120.774,151.625 121.254,151.741 121.697 C 151.857 122.141,151.701 122.756,151.393 123.064 C 151.086 123.371,150.939 123.897,151.067 124.231 C 151.198 124.571,150.970 125.107,150.550 125.449 C 150.138 125.785,149.995 125.964,150.233 125.847 C 150.472 125.731,150.667 125.889,150.667 126.200 C 150.667 126.511,150.517 126.672,150.333 126.559 C 150.150 126.445,150.000 126.554,150.000 126.800 C 150.000 127.046,149.837 127.146,149.637 127.023 C 149.438 126.900,149.353 127.114,149.449 127.499 C 149.546 127.885,149.169 128.723,148.612 129.362 C 148.055 130.001,147.614 130.721,147.632 130.962 C 147.650 131.215,147.749 131.188,147.865 130.900 C 147.976 130.625,148.260 130.400,148.495 130.400 C 148.731 130.400,148.602 130.756,148.209 131.191 C 147.815 131.625,147.309 131.868,147.085 131.729 C 146.851 131.584,146.798 131.674,146.962 131.938 C 147.424 132.685,146.820 133.315,146.164 132.770 C 145.622 132.320,145.350 132.948,145.568 134.147 C 145.603 134.338,145.219 134.394,144.716 134.271 C 143.840 134.057,142.554 134.657,142.490 135.310 C 142.393 136.310,142.111 136.454,141.482 135.825 C 140.885 135.228,140.800 135.221,140.800 135.771 C 140.800 136.117,140.575 136.414,140.300 136.431 C 140.025 136.447,139.485 136.522,139.100 136.595 C 138.715 136.669,138.395 136.520,138.388 136.265 C 138.381 136.009,138.196 136.108,137.977 136.483 C 137.726 136.914,137.324 137.071,136.889 136.908 C 136.287 136.683,136.269 136.735,136.749 137.325 C 137.136 137.801,137.159 138.000,136.825 138.000 C 136.565 138.000,136.452 138.161,136.574 138.358 C 136.696 138.555,136.512 138.825,136.165 138.958 C 135.166 139.341,134.800 139.245,134.800 138.600 C 134.800 137.917,134.173 137.797,133.796 138.407 C 133.658 138.630,133.383 138.713,133.185 138.591 C 132.988 138.469,132.597 138.736,132.317 139.184 C 131.754 140.086,131.144 140.279,131.300 139.505 C 131.361 139.204,130.892 138.983,130.100 138.940 C 129.385 138.901,128.800 139.040,128.800 139.249 C 128.800 139.476,128.489 139.462,128.026 139.214 C 127.039 138.686,125.877 138.677,126.200 139.200 C 126.479 139.651,125.883 139.750,125.456 139.323 C 124.851 138.717,123.464 138.754,123.969 139.362 C 124.662 140.198,123.515 139.972,122.645 139.102 C 122.277 138.735,121.712 138.536,121.388 138.660 C 121.065 138.784,120.800 138.686,120.800 138.443 C 120.800 137.844,119.912 138.060,119.334 138.799 C 118.753 139.543,118.428 139.251,118.315 137.883 C 118.219 136.718,117.389 136.615,116.174 137.619 C 115.521 138.157,115.505 138.133,115.952 137.294 C 116.217 136.796,116.292 136.427,116.117 136.474 C 115.579 136.618,114.000 135.966,114.000 135.600 C 114.000 135.409,113.535 135.337,112.966 135.440 C 112.174 135.584,111.883 135.438,111.720 134.814 C 111.602 134.366,111.247 134.000,110.930 134.000 C 110.612 134.000,110.456 133.832,110.583 133.628 C 110.709 133.423,110.643 133.150,110.434 133.021 C 110.226 132.892,109.942 132.970,109.804 133.193 C 109.666 133.417,109.338 133.597,109.076 133.594 C 108.790 133.590,108.839 133.433,109.200 133.200 C 109.579 132.955,109.621 132.810,109.313 132.806 C 109.044 132.803,108.922 132.548,109.040 132.240 C 109.340 131.458,108.484 131.032,107.782 131.615 C 107.372 131.955,107.200 131.965,107.200 131.649 C 107.200 131.402,107.380 131.200,107.600 131.200 C 108.187 131.200,108.089 130.402,107.500 130.387 C 106.322 130.355,104.669 128.400,105.821 128.400 C 106.288 128.400,106.211 128.178,105.506 127.500 C 104.992 127.005,104.598 126.191,104.631 125.690 C 104.665 125.190,104.508 124.667,104.284 124.528 C 104.060 124.390,103.997 124.472,104.145 124.711 C 104.292 124.949,104.255 125.243,104.061 125.362 C 103.867 125.482,103.704 125.090,103.697 124.490 C 103.671 121.923,103.594 121.556,103.137 121.839 C 102.824 122.032,102.743 121.862,102.886 121.313 C 103.059 120.653,102.940 120.535,102.249 120.681 C 101.415 120.858,101.416 120.847,102.309 120.059 C 102.808 119.619,103.057 119.159,102.860 119.037 C 102.664 118.916,102.567 118.264,102.646 117.588 C 102.732 116.850,102.631 116.457,102.395 116.603 C 101.934 116.888,101.859 116.274,102.300 115.834 C 102.731 115.403,102.780 112.400,102.356 112.400 C 102.160 112.400,102.000 112.130,102.000 111.800 C 102.000 111.461,102.358 111.200,102.824 111.200 C 103.277 111.200,103.536 111.020,103.400 110.800 C 103.264 110.580,103.388 110.397,103.676 110.394 C 104.008 110.390,104.049 110.280,103.787 110.094 C 103.428 109.839,103.358 109.101,103.550 107.613 C 103.578 107.399,103.830 107.314,104.112 107.422 C 104.433 107.545,104.655 107.247,104.706 106.624 C 104.770 105.848,104.643 105.685,104.129 105.883 C 103.676 106.056,103.563 105.984,103.768 105.652 C 103.933 105.385,104.412 105.277,104.834 105.411 C 105.420 105.597,105.600 105.460,105.600 104.827 C 105.600 104.372,105.960 103.640,106.400 103.200 C 106.840 102.760,107.200 102.130,107.200 101.800 C 107.200 101.470,107.470 101.200,107.800 101.200 C 108.130 101.200,108.400 100.942,108.400 100.627 C 108.400 100.052,109.852 99.344,110.600 99.554 C 110.820 99.616,110.865 99.531,110.699 99.366 C 110.534 99.200,110.714 98.716,111.099 98.290 C 111.485 97.865,111.800 97.400,111.800 97.258 C 111.800 97.116,111.935 97.045,112.100 97.100 C 112.265 97.155,112.400 97.026,112.400 96.813 C 112.400 96.599,112.652 96.522,112.960 96.640 C 113.267 96.758,113.638 96.662,113.783 96.427 C 113.928 96.192,114.377 96.000,114.781 96.000 C 115.548 96.000,116.164 94.989,115.778 94.364 C 115.654 94.164,115.844 94.000,116.200 94.000 C 116.592 94.000,116.733 94.184,116.558 94.468 C 116.368 94.775,116.481 94.855,116.886 94.699 C 117.225 94.569,117.704 94.664,117.951 94.911 C 118.283 95.243,118.400 95.078,118.400 94.280 C 118.400 93.159,119.072 92.802,119.430 93.733 C 119.542 94.027,119.889 94.267,120.200 94.267 C 120.510 94.267,120.653 94.086,120.517 93.865 C 120.371 93.630,120.532 93.565,120.905 93.708 C 121.269 93.848,121.768 93.663,122.071 93.276 C 122.557 92.655,122.535 92.648,121.800 93.200 C 121.070 93.748,121.045 93.743,121.515 93.141 C 121.854 92.708,122.560 92.502,123.577 92.541 C 124.707 92.584,125.021 92.726,124.740 93.068 M138.983 138.028 C 138.748 138.408,137.600 138.072,137.600 137.624 C 137.600 137.464,137.718 137.215,137.863 137.070 C 138.216 136.717,139.248 137.599,138.983 138.028 M253.647 155.548 C 253.871 155.200,254.110 155.146,254.300 155.400 C 254.668 155.891,256.467 156.032,256.167 155.547 C 256.049 155.356,256.098 155.189,256.276 155.176 C 256.454 155.163,257.275 155.101,258.100 155.038 C 258.925 154.975,259.600 155.076,259.600 155.262 C 259.600 155.448,260.061 155.600,260.624 155.600 C 261.295 155.600,261.549 155.441,261.362 155.138 C 261.168 154.824,261.254 154.786,261.631 155.019 C 262.136 155.331,263.159 155.574,264.200 155.629 C 264.420 155.640,265.320 155.547,266.200 155.422 C 267.392 155.252,267.647 155.302,267.200 155.618 C 266.704 155.970,266.738 156.018,267.400 155.898 C 267.841 155.818,268.142 155.499,268.070 155.187 C 267.982 154.803,268.228 154.875,268.839 155.411 C 269.333 155.845,269.614 155.987,269.462 155.728 C 269.311 155.468,269.371 155.141,269.596 155.002 C 269.821 154.863,270.114 155.031,270.246 155.375 C 270.387 155.742,270.962 156.000,271.643 156.000 C 272.279 156.000,272.800 156.180,272.800 156.400 C 272.800 156.620,273.261 156.800,273.824 156.800 C 274.387 156.800,274.755 156.950,274.641 157.133 C 274.528 157.317,274.689 157.467,275.000 157.467 C 275.311 157.467,275.475 157.322,275.366 157.145 C 275.257 156.968,275.805 156.847,276.585 156.876 C 277.365 156.906,277.916 157.018,277.808 157.125 C 277.547 157.386,278.867 158.371,279.500 158.387 C 279.775 158.394,280.000 158.123,280.000 157.784 C 280.000 157.278,280.099 157.260,280.558 157.684 C 280.865 157.968,281.027 158.347,280.918 158.527 C 280.809 158.707,281.098 158.953,281.560 159.074 C 282.022 159.194,282.400 159.452,282.400 159.647 C 282.400 160.203,283.599 160.059,283.613 159.500 C 283.620 159.195,283.832 159.272,284.157 159.700 C 284.449 160.085,284.871 160.400,285.095 160.400 C 285.319 160.400,285.724 160.668,285.996 160.996 C 286.268 161.323,286.660 161.487,286.867 161.359 C 287.073 161.231,287.575 161.510,287.982 161.980 C 288.510 162.588,288.777 162.684,288.912 162.316 C 289.018 162.027,289.222 162.252,289.376 162.829 C 289.561 163.521,290.105 164.022,291.038 164.359 C 292.676 164.952,294.547 166.667,293.861 166.948 C 293.608 167.052,293.726 167.151,294.124 167.168 C 294.522 167.186,294.736 167.380,294.600 167.600 C 294.464 167.820,294.618 168.000,294.943 168.000 C 295.268 168.000,295.614 167.775,295.712 167.500 C 295.810 167.225,296.031 167.131,296.202 167.290 C 296.374 167.450,296.263 167.890,295.957 168.267 C 295.651 168.645,295.606 168.830,295.858 168.679 C 296.338 168.392,296.983 169.445,296.847 170.294 C 296.803 170.568,297.019 170.691,297.332 170.571 C 297.643 170.451,298.004 170.634,298.136 170.977 C 298.267 171.320,298.708 171.600,299.115 171.600 C 300.373 171.600,301.597 173.314,300.842 174.019 C 300.289 174.535,300.296 174.608,300.913 174.726 C 301.291 174.799,301.600 175.107,301.600 175.409 C 301.600 175.712,301.825 176.104,302.100 176.280 C 302.375 176.456,302.808 176.960,303.063 177.400 C 303.317 177.840,303.751 178.145,304.026 178.079 C 304.575 177.946,305.184 178.700,305.194 179.524 C 305.197 179.812,305.036 179.946,304.835 179.822 C 304.634 179.698,304.516 179.912,304.573 180.298 C 304.629 180.684,304.995 181.062,305.385 181.138 C 305.869 181.233,305.996 181.118,305.786 180.777 C 305.581 180.446,305.639 180.377,305.958 180.574 C 306.326 180.802,306.329 181.003,305.970 181.436 C 305.618 181.860,305.617 182.000,305.965 182.000 C 306.287 182.000,306.311 182.219,306.042 182.722 C 305.806 183.162,305.798 183.668,306.022 184.022 C 306.223 184.340,306.391 184.443,306.394 184.251 C 306.397 184.059,306.679 184.133,307.019 184.416 C 307.513 184.826,307.533 184.996,307.119 185.259 C 306.780 185.474,306.759 185.590,307.060 185.594 C 307.324 185.597,307.484 186.121,307.436 186.822 C 307.384 187.562,307.587 188.177,307.948 188.379 C 308.321 188.588,308.548 189.322,308.554 190.341 C 308.559 191.237,308.644 191.890,308.742 191.791 C 308.840 191.693,309.148 191.923,309.426 192.304 C 309.779 192.785,309.801 193.076,309.501 193.261 C 309.211 193.440,309.268 193.725,309.673 194.130 C 310.014 194.472,310.239 195.310,310.192 196.066 C 310.146 196.800,310.309 197.532,310.554 197.694 C 310.862 197.897,310.838 197.990,310.476 197.994 C 310.188 197.997,310.066 198.183,310.204 198.407 C 310.342 198.630,310.623 198.709,310.828 198.583 C 311.032 198.456,311.200 198.798,311.200 199.343 C 311.200 199.888,311.425 200.425,311.700 200.536 C 312.100 200.699,312.100 200.810,311.700 201.093 C 311.049 201.554,311.167 204.813,311.844 205.072 C 312.214 205.214,312.251 205.540,311.978 206.257 C 311.730 206.910,311.739 207.162,312.004 206.998 C 312.225 206.861,312.522 207.053,312.665 207.424 C 312.830 207.855,312.663 208.245,312.202 208.503 C 311.528 208.880,311.544 208.958,312.440 209.688 C 312.968 210.118,313.175 210.353,312.900 210.211 C 312.339 209.921,312.366 209.829,312.160 212.721 C 312.045 214.331,312.128 214.770,312.504 214.544 C 312.885 214.315,312.883 214.391,312.494 214.871 C 312.096 215.364,311.968 223.755,311.894 254.448 L 311.800 293.400 289.800 293.400 L 267.800 293.400 267.800 255.000 C 267.800 229.863,267.662 216.499,267.400 216.306 C 267.159 216.129,267.218 216.010,267.549 216.006 C 268.003 216.001,268.008 215.891,267.575 215.370 C 267.143 214.849,267.146 214.681,267.591 214.406 C 268.126 214.075,267.545 213.073,266.700 212.871 C 266.535 212.832,266.445 212.665,266.500 212.500 C 266.555 212.335,266.708 212.236,266.840 212.280 C 266.972 212.324,267.095 211.826,267.113 211.173 C 267.135 210.403,266.992 210.081,266.705 210.258 C 266.423 210.433,266.354 210.297,266.515 209.878 C 266.652 209.519,266.590 209.117,266.376 208.985 C 266.162 208.853,266.055 208.134,266.137 207.387 C 266.219 206.640,266.134 205.977,265.947 205.914 C 265.760 205.851,265.568 205.260,265.520 204.600 C 265.473 203.940,265.279 203.292,265.090 203.160 C 264.901 203.028,264.701 202.609,264.645 202.228 C 264.589 201.847,264.363 201.415,264.143 201.268 C 263.922 201.121,263.625 200.685,263.483 200.300 C 263.341 199.915,262.949 199.600,262.613 199.600 C 262.092 199.600,261.786 198.653,261.943 197.528 C 261.964 197.378,261.401 197.060,260.691 196.820 C 259.857 196.539,259.186 195.927,258.796 195.092 C 258.464 194.381,257.969 193.845,257.696 193.900 C 257.423 193.955,257.245 193.799,257.300 193.553 C 257.355 193.307,257.043 193.047,256.607 192.975 C 256.171 192.903,255.751 192.654,255.674 192.422 C 255.597 192.190,255.284 192.000,254.979 192.000 C 254.636 192.000,254.518 192.243,254.671 192.640 C 254.806 192.992,254.433 192.796,253.841 192.205 C 252.970 191.334,252.656 191.222,252.183 191.614 C 251.741 191.981,251.600 191.984,251.600 191.625 C 251.600 191.365,251.392 191.281,251.138 191.438 C 250.863 191.609,250.785 191.549,250.945 191.289 C 251.454 190.465,250.119 190.141,247.076 190.350 C 246.678 190.378,246.464 190.580,246.600 190.800 C 246.736 191.020,246.657 191.200,246.424 191.200 C 246.191 191.200,246.000 190.930,246.000 190.600 C 246.000 190.270,245.820 190.000,245.600 190.000 C 245.380 190.000,245.200 190.270,245.200 190.600 C 245.200 190.930,244.846 191.200,244.413 191.200 C 243.947 191.200,243.704 190.996,243.817 190.700 C 244.075 190.027,239.399 190.041,238.725 190.715 C 238.458 190.982,237.862 191.200,237.400 191.200 C 236.938 191.200,236.389 191.365,236.180 191.566 C 235.971 191.768,235.350 191.997,234.800 192.076 C 234.250 192.154,233.846 192.444,233.903 192.718 C 233.995 193.166,232.408 194.050,231.686 193.952 C 231.160 193.881,229.600 194.490,229.600 194.766 C 229.600 195.210,226.406 198.400,225.962 198.400 C 225.737 198.400,225.664 198.580,225.800 198.800 C 225.936 199.020,225.722 199.213,225.324 199.228 C 224.741 199.251,224.717 199.309,225.200 199.528 C 226.020 199.900,226.145 200.800,225.376 200.800 C 225.009 200.800,224.857 200.594,225.006 200.300 C 225.145 200.025,224.982 200.142,224.642 200.559 C 224.303 200.976,224.106 201.449,224.205 201.609 C 224.304 201.768,223.955 202.222,223.430 202.616 C 222.906 203.010,222.555 203.538,222.651 203.790 C 222.748 204.041,222.461 204.669,222.013 205.185 C 221.566 205.700,221.200 206.465,221.200 206.885 C 221.200 207.382,221.026 207.547,220.700 207.359 C 220.410 207.192,220.340 207.224,220.533 207.436 C 220.717 207.636,221.032 207.822,221.233 207.850 C 221.435 207.878,221.724 207.923,221.875 207.950 C 222.027 207.978,221.802 208.351,221.375 208.781 C 220.949 209.210,220.420 209.795,220.200 210.081 C 219.646 210.800,219.697 213.334,220.274 213.705 C 220.632 213.936,220.608 214.276,220.176 215.105 C 219.693 216.032,219.605 222.160,219.602 254.980 C 219.601 285.142,219.493 293.653,219.120 293.280 C 218.756 292.916,213.454 292.823,197.220 292.895 L 175.800 292.990 197.400 293.200 L 219.000 293.410 196.851 293.505 C 178.069 293.586,174.772 293.516,175.160 293.049 C 175.485 292.657,175.499 292.186,175.209 291.422 C 174.918 290.659,174.935 290.095,175.268 289.474 C 175.525 288.993,175.683 288.510,175.620 288.400 C 175.062 287.434,174.902 286.433,175.286 286.305 C 175.614 286.195,175.613 285.811,175.281 284.860 C 174.918 283.820,174.937 283.522,175.376 283.354 C 175.837 283.177,175.838 282.979,175.384 282.104 C 175.009 281.381,174.964 280.841,175.236 280.332 C 175.493 279.852,175.491 279.343,175.228 278.853 C 175.008 278.442,174.949 277.984,175.098 277.836 C 175.246 277.687,175.315 276.834,175.250 275.938 C 175.171 274.847,175.275 274.399,175.566 274.579 C 175.848 274.753,175.981 274.383,175.946 273.524 C 175.907 272.584,175.841 272.461,175.718 273.100 C 175.522 274.114,174.800 274.335,174.800 273.380 C 174.800 273.039,175.081 272.216,175.425 271.551 C 175.840 270.750,175.920 270.184,175.663 269.871 C 175.181 269.285,175.161 266.554,175.630 265.321 C 175.859 264.719,175.833 264.400,175.557 264.400 C 175.324 264.400,175.214 264.175,175.313 263.900 C 175.411 263.625,175.336 263.096,175.145 262.724 C 174.939 262.324,174.954 261.952,175.181 261.811 C 175.392 261.681,175.464 261.310,175.340 260.987 C 175.216 260.664,175.314 260.400,175.557 260.400 C 175.801 260.400,176.000 259.860,176.000 259.200 C 176.000 258.540,175.809 258.000,175.576 258.000 C 175.343 258.000,175.281 258.208,175.438 258.462 C 175.619 258.755,175.547 258.815,175.242 258.626 C 174.875 258.399,174.871 258.196,175.228 257.767 C 175.484 257.458,175.608 256.751,175.502 256.198 C 175.396 255.644,175.440 254.478,175.599 253.606 C 175.758 252.735,175.770 252.095,175.626 252.184 C 175.259 252.411,175.332 245.905,175.702 245.334 C 175.869 245.078,175.840 244.808,175.639 244.734 C 175.228 244.583,175.062 243.792,175.192 242.600 C 175.268 241.911,175.324 241.938,175.600 242.800 L 175.920 243.800 175.960 242.780 C 175.982 242.219,175.775 241.518,175.500 241.221 C 175.225 240.925,175.193 240.790,175.430 240.921 C 175.721 241.083,175.858 240.078,175.854 237.803 C 175.852 235.956,175.730 234.520,175.583 234.610 C 175.436 234.701,175.375 233.116,175.448 231.088 C 175.520 229.059,175.558 226.860,175.533 226.200 C 175.480 224.779,175.478 224.866,175.731 214.434 C 175.842 209.828,175.779 206.510,175.586 206.823 C 175.383 207.151,175.193 204.974,175.122 201.488 C 175.055 198.249,175.093 195.599,175.208 195.599 C 175.322 195.600,175.346 194.226,175.261 192.548 C 175.163 190.595,175.250 189.584,175.504 189.741 C 175.935 190.007,175.875 177.342,175.443 176.910 C 175.051 176.518,175.164 174.815,175.640 173.925 C 175.960 173.328,175.960 173.178,175.640 173.375 C 175.101 173.709,175.092 173.535,175.585 172.240 C 175.850 171.544,175.830 171.142,175.523 170.952 C 175.233 170.773,175.190 170.860,175.400 171.200 C 175.616 171.549,175.567 171.627,175.255 171.434 C 174.998 171.275,174.892 170.974,175.021 170.766 C 175.150 170.557,175.423 170.491,175.628 170.617 C 175.832 170.744,176.000 170.556,176.000 170.200 C 176.000 169.844,175.859 169.640,175.687 169.746 C 175.515 169.853,175.397 169.053,175.426 167.970 C 175.464 166.557,175.326 166.000,174.940 166.000 C 174.643 166.000,174.400 165.826,174.400 165.613 C 174.400 165.399,174.647 165.320,174.948 165.436 C 175.672 165.713,176.182 164.362,175.514 163.938 C 175.231 163.759,175.157 163.609,175.349 163.606 C 175.541 163.603,175.487 163.346,175.230 163.036 C 174.904 162.643,174.891 162.391,175.187 162.208 C 175.421 162.063,175.509 161.777,175.383 161.572 C 175.256 161.368,175.363 161.200,175.619 161.200 C 175.902 161.200,175.977 160.925,175.808 160.500 C 174.750 157.827,173.114 158.014,198.575 157.898 C 210.442 157.844,219.847 157.858,219.475 157.929 C 219.104 158.000,218.800 158.236,218.800 158.453 C 218.800 158.670,218.980 158.736,219.200 158.600 C 219.462 158.438,219.600 161.321,219.600 166.953 C 219.600 172.520,219.748 175.644,220.019 175.812 C 220.301 175.986,220.269 176.281,219.919 176.712 C 219.593 177.116,219.574 177.249,219.870 177.072 C 220.128 176.917,220.417 177.017,220.512 177.295 C 220.607 177.573,220.640 177.492,220.584 177.115 C 220.467 176.323,221.322 175.465,221.791 175.903 C 221.966 176.067,221.904 175.807,221.654 175.326 C 221.015 174.096,221.090 173.701,221.787 174.624 C 222.110 175.051,222.394 175.310,222.418 175.200 C 222.692 173.937,222.661 173.600,222.272 173.600 C 222.020 173.600,222.531 173.122,223.407 172.538 C 224.283 171.954,225.090 171.400,225.199 171.306 C 225.309 171.212,225.050 170.879,224.623 170.567 C 223.900 170.039,224.188 169.777,225.300 169.953 C 225.465 169.979,225.579 169.865,225.553 169.700 C 225.432 168.939,225.661 168.804,226.400 169.200 C 227.070 169.559,227.200 169.504,227.200 168.863 C 227.200 168.442,227.468 167.876,227.796 167.604 C 228.123 167.332,228.293 166.950,228.172 166.755 C 227.844 166.224,228.562 166.327,229.179 166.900 C 229.550 167.244,229.634 167.252,229.450 166.925 C 229.303 166.663,229.473 166.287,229.827 166.089 C 230.182 165.890,230.456 165.564,230.436 165.364 C 230.416 165.164,230.625 164.996,230.900 164.990 C 231.175 164.985,231.374 164.664,231.342 164.276 C 231.296 163.717,231.399 163.668,231.842 164.035 C 232.379 164.480,232.609 164.124,232.447 163.100 C 232.421 162.935,232.535 162.821,232.700 162.847 C 233.848 163.029,234.800 162.716,234.800 162.157 C 234.800 161.765,235.022 161.600,235.371 161.733 C 235.685 161.854,236.155 161.695,236.416 161.381 C 236.677 161.066,237.079 160.925,237.308 161.067 C 237.571 161.230,237.643 161.006,237.501 160.463 C 237.377 159.989,237.438 159.500,237.638 159.377 C 237.837 159.254,238.000 159.343,238.000 159.576 C 238.000 159.809,238.379 160.000,238.843 160.000 C 239.428 160.000,239.615 159.816,239.455 159.400 C 239.284 158.953,239.516 158.800,240.364 158.800 C 241.093 158.800,241.727 158.476,242.128 157.900 L 242.753 157.000 242.590 157.950 C 242.432 158.867,242.454 158.875,243.204 158.196 C 243.631 157.810,243.877 157.324,243.749 157.117 C 243.621 156.910,243.884 156.971,244.333 157.251 C 244.997 157.666,245.333 157.664,246.122 157.242 C 246.656 156.956,247.550 156.695,248.108 156.661 C 248.666 156.627,249.040 156.465,248.938 156.300 C 248.836 156.135,249.316 156.000,250.005 156.000 C 250.694 156.000,251.543 155.714,251.893 155.364 C 252.474 154.784,252.561 154.788,252.911 155.412 C 253.224 155.972,253.358 155.996,253.647 155.548 M149.598 225.042 C 149.601 262.135,149.676 292.600,149.764 292.742 C 149.852 292.884,139.906 292.996,127.662 292.992 L 105.400 292.983 127.400 293.198 L 149.400 293.414 127.400 293.407 L 105.400 293.400 105.400 225.800 L 105.400 158.200 127.400 157.995 C 139.500 157.882,149.443 157.747,149.495 157.695 C 149.548 157.643,149.594 187.949,149.598 225.042 M91.600 366.076 C 91.600 366.602,90.691 366.273,90.492 365.675 C 90.394 365.382,90.577 365.293,90.967 365.443 C 91.315 365.576,91.600 365.861,91.600 366.076 " stroke="none" fill="#047cbc" fill-rule="evenodd"></path></g></svg>