<svg width="54" height="54" viewBox="0 0 54 54" fill="none" xmlns="http://www.w3.org/2000/svg">
<path d="M0.338623 27.0053C0.341726 40.1237 9.88103 51.2934 22.8373 53.3493V34.712H16.072V27.0053H22.8453V21.1386C22.5425 18.3587 23.492 15.5882 25.4363 13.5784C27.3806 11.5687 30.1182 10.528 32.9066 10.7386C34.9081 10.7709 36.9045 10.9492 38.88 11.272V17.8293H35.5093C34.3489 17.6773 33.1822 18.0605 32.338 18.8711C31.4938 19.6816 31.0634 20.8316 31.168 21.9973V27.0053H38.5573L37.376 34.7146H31.168V53.3493C45.1799 51.1349 55.0055 38.338 53.5266 24.2295C52.0478 10.1209 39.7821 -0.360234 25.6155 0.379098C11.4489 1.11843 0.340875 12.8194 0.338623 27.0053Z" fill="#2E3A59"/>
</svg>
