<svg width="47" height="48" viewBox="0 0 47 48" fill="none" xmlns="http://www.w3.org/2000/svg">
<path d="M23.8826 19.616V28.8187H36.6613C35.472 34.6667 30.4933 38.0267 23.8826 38.0267C16.1828 37.9207 9.99641 31.6486 9.99641 23.948C9.99641 16.2474 16.1828 9.97533 23.8826 9.86936C27.0832 9.86553 30.1852 10.9762 32.656 13.0107L39.5893 6.07736C31.6362 -0.914459 20.0213 -1.81375 11.0868 3.87054C2.15227 9.55483 -1.95463 20.4566 1.00864 30.623C3.97191 40.7894 13.2932 47.7772 23.8826 47.7707C35.7947 47.7707 46.6267 39.1067 46.6267 23.9467C46.6083 22.4871 46.4294 21.0339 46.0933 19.6134L23.8826 19.616Z" fill="#2E3A59"/>
</svg>
