<svg width="48" height="48" viewBox="0 0 48 48" fill="none" xmlns="http://www.w3.org/2000/svg">
<path d="M26.6667 48H16V16H26.6667V21.3333C28.9404 18.4407 32.3884 16.7162 36.0667 16.632C42.6816 16.6687 48.0192 22.0517 48.0001 28.6667V48H37.3333V30C36.9068 27.0203 34.3514 24.8095 31.3413 24.816C30.0247 24.8576 28.782 25.4341 27.8998 26.4123C27.0177 27.3906 26.5724 28.6861 26.6667 30V48ZM10.6667 48H0V16H10.6667V48ZM5.33333 10.6667C2.38781 10.6667 0 8.27885 0 5.33333C0 2.38781 2.38781 0 5.33333 0C8.27885 0 10.6667 2.38781 10.6667 5.33333C10.6667 6.74782 10.1048 8.10438 9.10457 9.10457C8.10438 10.1048 6.74782 10.6667 5.33333 10.6667Z" fill="#2E3A59"/>
</svg>
